<svg xmlns="http://www.w3.org/2000/svg" xmlns:xlink="http://www.w3.org/1999/xlink" version="1.1" x="0px" y="0px" viewBox="0 0 100 125" enable-background="new 0 0 100 100" xml:space="preserve"><path d="M58.688,53.813c-0.021-0.111-0.021-0.932,0-1.043c0,0,1.763-1.038,1.821-1.095c0.486-0.472,0.692-1.28,0.458-2.017  l-0.684-1.601c-0.298-0.579-0.991-0.983-1.693-0.983c-0.081,0-2.05,0.476-2.05,0.476c-0.109-0.072-0.716-0.689-0.766-0.765  c0,0,0.514-1.987,0.515-2.068c0.01-0.679-0.417-1.396-1.094-1.743l-1.659-0.684c-0.652-0.205-1.457,0.016-1.92,0.492  c-0.056,0.059-1.095,1.821-1.095,1.821c-0.222,0.043-0.82,0.043-1.042,0c0,0-1.039-1.763-1.095-1.821  c-0.346-0.356-0.87-0.569-1.402-0.569c-0.187,0-0.365,0.027-0.606,0.108l-1.645,0.688c-0.601,0.309-1.029,1.027-1.02,1.707  c0.001,0.081,0.514,2.064,0.514,2.064c-0.047,0.069-0.676,0.701-0.782,0.766c0,0-1.962-0.472-2.043-0.472  c-0.693,0-1.386,0.404-1.717,1.054l-0.685,1.641c-0.203,0.646,0.008,1.455,0.501,1.925c0.045,0.044,1.813,1.192,1.813,1.192  c0.019,0.097,0.021,0.827,0.002,0.925c0,0-1.766,1.04-1.824,1.096c-0.487,0.472-0.694,1.281-0.461,2.01l0.688,1.646  c0.305,0.59,1.013,1.018,1.705,1.018c0.082-0.001,2.065-0.513,2.065-0.513c0.111,0.075,0.69,0.666,0.737,0.736  c0,0-0.513,1.982-0.514,2.063c-0.01,0.679,0.417,1.396,1.094,1.743l1.646,0.679c0.638,0.208,1.466-0.007,1.933-0.488  c0.056-0.059,1.094-1.82,1.094-1.82c0.223-0.043,0.82-0.043,1.043,0c0,0,1.038,1.762,1.094,1.82c0.346,0.356,0.87,0.569,1.402,0.569  c0.187,0,0.365-0.027,0.606-0.108l1.648-0.687c0.599-0.311,1.026-1.028,1.017-1.707c-0.001-0.081-0.514-2.063-0.514-2.063  c0.047-0.07,0.626-0.66,0.738-0.736c0,0,1.994,0.513,2.08,0.513c0.675,0,1.386-0.428,1.726-1.093L61,56.833  c0.202-0.644-0.005-1.453-0.491-1.925C60.451,54.851,58.688,53.813,58.688,53.813z M58.547,57.535l-1.783-0.47  c-0.633-0.17-1.391,0.217-2.167,1.032c-0.612,0.645-0.885,1.195-0.856,1.745c0.003,0.072,0.502,1.997,0.502,1.997l-1.198,0.5  c0,0-1.021-1.729-1.067-1.78c-0.139-0.153-0.56-0.62-1.978-0.62c-1.417,0-1.839,0.466-1.99,0.633  c-0.048,0.052-1.054,1.765-1.054,1.765l-1.199-0.497c0,0,0.5-1.941,0.503-2.011c0.028-0.536-0.245-1.087-0.857-1.732  c-0.671-0.705-1.297-1.063-1.948-1.063c-0.002,0-0.005,0-0.007,0c-0.072,0.003-1.995,0.502-1.995,0.502l-0.498-1.199  c0,0,1.728-1.019,1.779-1.065c0.417-0.377,0.62-1.004,0.62-1.917c0-0.9-0.209-1.545-0.621-1.917  c-0.04-0.035-1.779-1.164-1.779-1.164l0.485-1.16c0,0,2.167,0.479,2.334,0.425c0.316-0.05,0.868-0.249,1.631-1.051  c0.612-0.645,0.885-1.195,0.856-1.747c-0.003-0.071-0.502-1.994-0.502-1.994l1.199-0.498c0,0,1.02,1.726,1.065,1.777  c0.139,0.153,0.56,0.621,1.979,0.621s1.84-0.468,1.99-0.634c0.047-0.053,1.054-1.765,1.054-1.765l1.199,0.498  c0,0-0.5,1.944-0.503,2.014c-0.028,0.54,0.245,1.092,0.857,1.737c0.751,0.79,1.294,1,1.642,1.055  c0.164,0.047,2.321-0.438,2.321-0.438l0.483,1.137c0,0-1.726,1.019-1.777,1.065c-0.153,0.139-0.62,0.561-0.62,1.978  s0.466,1.839,0.657,2.01c0.046,0.04,1.742,1.034,1.742,1.034L58.547,57.535z M50.004,48.636c-2.583,0-4.685,2.102-4.685,4.686  c0,2.583,2.102,4.685,4.685,4.685c2.583,0,4.685-2.102,4.685-4.685C54.689,50.738,52.587,48.636,50.004,48.636z M50.004,56.007  c-1.48,0-2.685-1.204-2.685-2.685s1.205-2.686,2.685-2.686s2.685,1.205,2.685,2.686S51.485,56.007,50.004,56.007z M66.814,42.396  l-15.933-9.198c-0.619-0.357-1.381-0.357-2,0l-15.933,9.198c-0.619,0.357-1,1.018-1,1.732v18.398c0,0.715,0.381,1.375,1,1.732  l15.933,9.199c0.31,0.179,0.655,0.268,1,0.268s0.69-0.089,1-0.268l15.933-9.199c0.619-0.357,1-1.018,1-1.732V44.129  C67.814,43.414,67.433,42.754,66.814,42.396z M63.814,61.373l-13.933,8.044l-13.933-8.044v-16.09l13.933-8.043l13.933,8.043V61.373z   M34.866,29.806h30.03c0.006,0,0.013,0,0.02,0c0.829,0,1.5-0.672,1.5-1.5c0-0.271-0.072-0.526-0.199-0.746l-2.393-6.33V7.932  c0-0.828-0.671-1.5-1.5-1.5H37.437c-0.829,0-1.5,0.672-1.5,1.5v13.298l-2.475,6.546c-0.174,0.461-0.111,0.978,0.169,1.383  C33.912,29.563,34.374,29.806,34.866,29.806z M60.825,9.432v11.415H38.937V9.432H60.825z M38.875,21.847h22.012  c0.015,0.062,1.838,4.959,1.838,4.959H37.037C37.037,26.806,38.86,21.909,38.875,21.847z M7.86,48.596h19.632  c0.829,0,1.5-0.672,1.5-1.5V20.153c0-0.828-0.671-1.5-1.5-1.5H7.86c-0.829,0-1.5,0.672-1.5,1.5v26.942  C6.36,47.924,7.031,48.596,7.86,48.596z M9.36,45.596v-5.085h16.632v5.085H9.36z M25.992,21.653v16.857H9.36V21.653H25.992z   M56.695,76.571H43.067c-4.686,0-8.498,3.813-8.498,8.499c0,4.686,3.812,8.498,8.498,8.498h13.628c4.686,0,8.498-3.813,8.498-8.498  C65.193,80.384,61.381,76.571,56.695,76.571z M56.695,90.568H43.067c-3.032,0-5.498-2.467-5.498-5.498  c0-3.032,2.466-5.499,5.498-5.499h13.628c3.032,0,5.498,2.467,5.498,5.499C62.193,88.102,59.727,90.568,56.695,90.568z   M47.418,85.07c0,0.553-0.448,1-1,1h-1.236v1.236c0,0.553-0.448,1-1,1s-1-0.447-1-1V86.07h-1.237c-0.552,0-1-0.447-1-1s0.448-1,1-1  h1.237v-1.237c0-0.553,0.448-1,1-1s1,0.447,1,1v1.237h1.236C46.97,84.07,47.418,84.518,47.418,85.07z M52.613,85.07  c0,0.553-0.448,1-1,1H51c-0.552,0-1-0.447-1-1s0.448-1,1-1h0.613C52.165,84.07,52.613,84.518,52.613,85.07z M57.646,85.07  c0,0.553-0.448,1-1,1h-0.613c-0.552,0-1-0.447-1-1s0.448-1,1-1h0.613C57.198,84.07,57.646,84.518,57.646,85.07z M91.925,62.381  H77.273c-0.023-0.579-0.072-1.634-0.845-1.634h-2.487c-0.183,0-0.356,0.074-0.489,0.21c-0.237,0.242-0.353,0.727-0.355,1.424h-0.658  c-1.029,0-2.231,0.658-2.231,2.514V76.86c0,1.878,1.202,2.544,2.231,2.544h19.486c0.498,0,2.121-0.184,2.121-2.544V64.895  C94.046,62.626,92.563,62.381,91.925,62.381z M74.15,61.747h2.056c0.024,0.108,0.05,0.303,0.065,0.634h-2.174  C74.099,62.119,74.119,61.885,74.15,61.747z M91.046,76.404H73.208V65.381h17.838V76.404z M87.99,75.134  c0.852,0,1.545-0.693,1.545-1.545s-0.693-1.545-1.545-1.545s-1.545,0.693-1.545,1.545S87.138,75.134,87.99,75.134z M87.99,73.044  c0.3,0,0.545,0.244,0.545,0.545s-0.245,0.545-0.545,0.545s-0.545-0.244-0.545-0.545S87.689,73.044,87.99,73.044z M82.232,74.833  c2.239,0,4.06-1.821,4.06-4.061c0-2.238-1.821-4.06-4.06-4.06s-4.06,1.821-4.06,4.06C78.172,73.012,79.993,74.833,82.232,74.833z   M82.232,67.713c1.688,0,3.06,1.372,3.06,3.06s-1.373,3.061-3.06,3.061s-3.06-1.373-3.06-3.061S80.544,67.713,82.232,67.713z   M28.842,61.862H6.896c-0.829,0-1.5,0.672-1.5,1.5v14.729c0,0.828,0.671,1.5,1.5,1.5h5.45v1.221l-0.822,2.422  c-0.155,0.458-0.081,0.963,0.201,1.356c0.282,0.393,0.736,0.626,1.219,0.626h9.851c0.484,0,0.938-0.233,1.22-0.627  s0.356-0.899,0.2-1.357l-0.822-2.41v-1.23h5.45c0.829,0,1.5-0.672,1.5-1.5V63.362C30.342,62.534,29.671,61.862,28.842,61.862z   M15.037,82.216l0.223-0.656h5.215l0.224,0.656H15.037z M20.393,80.56h-5.047v-0.969h5.047V80.56z M27.342,76.591H8.396V64.862  h18.947V76.591z M93.104,35.747h-2.388v-6.053c0-0.553-0.448-1-1-1H74.794c-0.552,0-1,0.447-1,1v6.053h-2.388  c-0.829,0-1.5,0.672-1.5,1.5v10.531c0,0.828,0.671,1.5,1.5,1.5h21.698c0.829,0,1.5-0.672,1.5-1.5V37.247  C94.604,36.419,93.933,35.747,93.104,35.747z M75.794,30.694h12.923v5.053H75.794V30.694z M91.604,46.278H72.906v-7.531h18.698  V46.278z M75.745,41.728c0-0.276,0.224-0.5,0.5-0.5h1.451c0.276,0,0.5,0.224,0.5,0.5s-0.224,0.5-0.5,0.5h-1.451  C75.969,42.228,75.745,42.004,75.745,41.728z M75.745,43.829c0-0.276,0.224-0.5,0.5-0.5h1.451c0.276,0,0.5,0.224,0.5,0.5  s-0.224,0.5-0.5,0.5h-1.451C75.969,44.329,75.745,44.105,75.745,43.829z M87.562,43.521c0.811,0,1.47-0.659,1.47-1.47  s-0.66-1.47-1.47-1.47s-1.47,0.659-1.47,1.47S86.751,43.521,87.562,43.521z M87.562,41.581c0.259,0,0.47,0.211,0.47,0.47  s-0.211,0.47-0.47,0.47c-0.259,0-0.47-0.211-0.47-0.47S87.303,41.581,87.562,41.581z M77.248,32.427c0-0.138,0.112-0.25,0.25-0.25  h9.516c0.138,0,0.25,0.112,0.25,0.25s-0.112,0.25-0.25,0.25h-9.516C77.359,32.677,77.248,32.564,77.248,32.427z M87.263,33.956  c0,0.138-0.112,0.25-0.25,0.25h-9.516c-0.138,0-0.25-0.112-0.25-0.25s0.112-0.25,0.25-0.25h9.516  C87.151,33.706,87.263,33.818,87.263,33.956z M17.676,41.419c-0.934,0-1.694,0.76-1.694,1.694s0.76,1.694,1.694,1.694  s1.694-0.76,1.694-1.694S18.61,41.419,17.676,41.419z M17.676,43.808c-0.383,0-0.694-0.312-0.694-0.694s0.312-0.694,0.694-0.694  s0.694,0.312,0.694,0.694S18.059,43.808,17.676,43.808z"/><text x="0" y="115" fill="#000000" font-size="5px" font-weight="bold" font-family="'Helvetica Neue', Helvetica, Arial-Unicode, Arial, Sans-serif">Created by H Alberto Gongora</text><text x="0" y="120" fill="#000000" font-size="5px" font-weight="bold" font-family="'Helvetica Neue', Helvetica, Arial-Unicode, Arial, Sans-serif">from the Noun Project</text></svg>