<?xml version="1.0" encoding="iso-8859-1"?>
<!-- Generator: Adobe Illustrator 19.0.0, SVG Export Plug-In . SVG Version: 6.00 Build 0)  -->
<svg version="1.1" id="Capa_1" xmlns="http://www.w3.org/2000/svg" xmlns:xlink="http://www.w3.org/1999/xlink" x="0px" y="0px"
	 viewBox="0 0 512 512" style="enable-background:new 0 0 512 512;" xml:space="preserve">
<path style="fill:#E8E1D6;" d="M486.375,100.338H111.182c-10.266,0-18.617,8.352-18.617,18.617v115.45v88.915v69.723
	c0,10.266,8.352,18.617,18.617,18.617h375.194c10.266,0,18.617-8.352,18.617-18.617V118.955
	C504.993,108.689,496.641,100.338,486.375,100.338z"/>
<g>
	<path style="fill:#E2CCAF;" d="M152.276,393.044V323.32v-88.915v-115.45c0-10.266,8.352-18.617,18.617-18.617h-59.712
		c-10.266,0-18.617,8.352-18.617,18.617v115.45v88.915v69.723c0,10.266,8.352,18.617,18.617,18.617h59.712
		C160.628,411.661,152.276,403.31,152.276,393.044z"/>
	<path style="fill:#E2CCAF;" d="M251.676,250.158c0-8.83-7.183-16.015-16.015-16.015h-54.019v-38.062
		c0-8.83-7.183-16.014-16.015-16.014c-8.831,0-16.015,7.183-16.015,16.014v38.261l-21.154,11.166
		c-6.935,3.659-12.937,9.019-17.356,15.499l-6.465,9.483H92.564v52.83v14.658h11.186c8.991,13.327,23.933,21.276,40.022,21.276
		h91.889c8.83,0,16.015-7.183,16.015-16.014c0-7.457-5.123-13.74-12.035-15.514c6.911-1.773,12.035-8.056,12.035-15.513
		s-5.123-13.74-12.035-15.514c6.911-1.773,12.035-8.056,12.035-15.513s-5.123-13.74-12.035-15.514
		C246.552,263.899,251.676,257.616,251.676,250.158z"/>
</g>
<path style="fill:#C3DA40;" d="M413.898,370.445V209.624c0-5.624,4.56-10.184,10.184-10.184h28.684
	c5.624,0,10.184,4.56,10.184,10.184v160.821c0,5.624-4.56,10.184-10.184,10.184h-28.684
	C418.457,380.629,413.898,376.069,413.898,370.445z"/>
<path style="fill:#31D2F7;" d="M334.816,370.445V259.676c0-5.624,4.56-10.184,10.184-10.184h28.684
	c5.624,0,10.184,4.56,10.184,10.184v110.769c0,5.624-4.56,10.184-10.184,10.184h-28.684
	C339.375,380.629,334.816,376.069,334.816,370.445z"/>
<path style="fill:#FF62A7;" d="M255.734,370.445v-72.73c0-5.624,4.56-10.184,10.184-10.184h28.684
	c5.624,0,10.184,4.56,10.184,10.184v72.73c0,5.624-4.56,10.184-10.184,10.184h-28.684
	C260.292,380.629,255.734,376.069,255.734,370.445z"/>
<path style="fill:#ADBC15;" d="M437.405,370.445V209.624c0-5.624,4.56-10.184,10.184-10.184h-23.506
	c-5.624,0-10.184,4.56-10.184,10.184v160.821c0,5.624,4.56,10.184,10.184,10.184h23.506
	C441.963,380.629,437.405,376.069,437.405,370.445z"/>
<path style="fill:#13ACE8;" d="M358.322,370.445V259.676c0-5.624,4.56-10.184,10.184-10.184H345c-5.624,0-10.184,4.56-10.184,10.184
	v110.769c0,5.624,4.56,10.184,10.184,10.184h23.506C362.881,380.629,358.322,376.069,358.322,370.445z"/>
<path style="fill:#FC5479;" d="M279.24,370.445v-72.73c0-5.624,4.56-10.184,10.184-10.184h-23.506
	c-5.624,0-10.184,4.56-10.184,10.184v72.73c0,5.624,4.56,10.184,10.184,10.184h23.506
	C283.799,380.629,279.24,376.069,279.24,370.445z"/>
<path style="fill:#F8CE29;" d="M176.652,371.265v-37.185h40.512l0.353-0.012l8.186-0.181v37.378c0,5.171-4.192,9.364-9.364,9.364
	h-30.325C180.844,380.629,176.652,376.437,176.652,371.265z"/>
<polygon style="fill:#F9A141;" points="217.164,334.081 176.652,334.081 176.652,359.255 225.703,359.255 225.703,333.888 
	217.517,334.069 "/>
<path style="fill:#FAD393;" d="M125.274,335.082c-16.089,0-31.03-7.948-40.022-21.276H53.105v-67.488h33.036l6.465-9.483
	c4.419-6.481,10.421-11.84,17.356-15.499l21.154-11.166v-38.261c0-8.83,7.183-16.014,16.015-16.014
	c8.831,0,16.015,7.183,16.015,16.014v38.062h54.019c8.83,0,16.015,7.184,16.015,16.015c0,7.457-5.123,13.74-12.035,15.513
	c6.911,1.774,12.035,8.057,12.035,15.514c0,7.457-5.123,13.74-12.035,15.513c6.911,1.774,12.035,8.057,12.035,15.514
	c0,7.457-5.123,13.74-12.035,15.513c6.911,1.774,12.035,8.057,12.035,15.514c0,8.83-7.183,16.014-16.015,16.014h-91.89V335.082z"/>
<g>
	<path style="fill:#EDB769;" d="M111.104,236.835c4.419-6.481,10.421-11.84,17.356-15.499l12.482-6.589
		c5.334-2.816,8.672-8.352,8.672-14.383v-28.455c0-5.385,2.679-10.146,6.765-13.05c-3.008-2.138-6.771-3.278-10.815-2.888
		c-8.271,0.798-14.448,8.013-14.448,16.322v37.877l-21.154,11.166c-6.935,3.659-12.937,9.019-17.356,15.499l-6.465,9.483h18.498
		L111.104,236.835z"/>
	<rect x="53.105" y="246.315" style="fill:#EDB769;" width="18.498" height="67.49"/>
	<path style="fill:#EDB769;" d="M103.75,313.806H85.253c8.991,13.327,23.933,21.276,40.022,21.276h18.498
		C127.683,335.082,112.742,327.132,103.75,313.806z"/>
</g>
<path style="fill:#31D2F7;" d="M7.007,322.151v-81.519c0-4.203,3.408-7.612,7.612-7.612h31.876c4.203,0,7.612,3.408,7.612,7.612
	v81.519c0,4.203-3.408,7.612-7.612,7.612H14.619C10.415,329.762,7.007,326.355,7.007,322.151z"/>
<path style="fill:#13ACE8;" d="M30.557,322.151v-81.52c0-4.203,3.408-7.612,7.612-7.612H14.619c-4.203,0-7.612,3.408-7.612,7.612
	v81.52c0,4.203,3.408,7.612,7.612,7.612h23.549C33.964,329.762,30.557,326.355,30.557,322.151z"/>
<path d="M486.375,93.33H111.182c-14.13,0-25.625,11.495-25.625,25.625v115.781l-3.119,4.575H61.114v-0.921
	c0-6.824-5.552-12.376-12.376-12.376H12.377C5.552,226.013,0,231.565,0,238.389v86.004c0,6.824,5.552,12.376,12.377,12.376h36.361
	c6.824,0,12.376-5.552,12.376-12.376v-3.581h20.571c1.215,1.56,2.513,3.036,3.872,4.443v67.789
	c0,14.129,11.495,25.625,25.625,25.625h375.194c14.13,0,25.625-11.495,25.625-25.625v-274.09
	C512,104.825,500.504,93.33,486.375,93.33z M46.098,321.754H15.016v-80.726h31.082v5.789v66.487V321.754z M61.114,305.797v-51.471
	h25.292c2.483,0,4.804-1.227,6.203-3.277l6.614-9.701c3.686-5.405,8.691-9.875,14.476-12.928l21.421-11.307
	c2.463-1.3,4.003-3.856,4.003-6.64V171.91c0-4.414,3.592-8.005,8.006-8.005c4.415,0,8.006,3.592,8.006,8.005v38.562
	c0,4.147,3.361,7.508,7.508,7.508h54.52c4.415,0,8.006,3.592,8.006,8.006c0,4.414-3.592,8.005-8.006,8.005
	c-4.146,0-7.508,3.36-7.508,7.508c0,4.147,3.361,7.508,7.508,7.508c4.415,0,8.006,3.592,8.006,8.006
	c0,4.414-3.592,8.005-8.006,8.005c-4.146,0-7.508,3.36-7.508,7.508c0,4.147,3.361,7.508,7.508,7.508
	c4.415,0,8.006,3.592,8.006,8.006c0,4.414-3.592,8.005-8.006,8.005c-4.146,0-7.508,3.361-7.508,7.508s3.361,7.508,7.508,7.508
	c4.415,0,8.006,3.592,8.006,8.006c0,4.414-3.592,8.005-8.006,8.005h-91.889c-13.495,0-26.022-6.704-33.508-17.933
	c-1.392-2.089-3.736-3.343-6.246-3.343H61.114z M184.66,342.089h32.504c0.178,0,0.353-0.009,0.531-0.013v30.545H184.66V342.089z
	 M496.984,393.044c0,5.85-4.759,10.609-10.609,10.609H111.182c-5.85,0-10.609-4.759-10.609-10.609v-56.776
	c7.551,3.77,15.977,5.821,24.702,5.821h44.37v38.04c0,4.147,3.361,7.508,7.508,7.508h48.05c4.146,0,7.508-3.361,7.508-7.508v-43.545
	c0-0.178-0.014-0.353-0.027-0.528c4.607-4.212,7.502-10.268,7.502-16.988c0-5.971-2.284-11.419-6.026-15.514
	c3.742-4.095,6.026-9.542,6.026-15.513c0-5.971-2.284-11.419-6.026-15.514c3.742-4.095,6.026-9.542,6.026-15.513
	c0-5.971-2.284-11.419-6.026-15.514c3.742-4.095,6.026-9.542,6.026-15.513c0-12.695-10.328-23.022-23.022-23.022h-47.012V171.91
	c0-12.694-10.328-23.021-23.022-23.021c-12.694,0-23.022,10.327-23.022,23.021v34.035l-17.417,9.195
	c-2.123,1.12-4.163,2.389-6.119,3.775v-99.959c0-5.85,4.759-10.609,10.609-10.609h375.196c5.85,0,10.609,4.759,10.609,10.609
	V393.044z"/>
<path d="M304.284,280.525h-48.05c-4.146,0-7.508,3.36-7.508,7.508v92.096c0,4.147,3.361,7.508,7.508,7.508h48.05
	c4.146,0,7.508-3.361,7.508-7.508v-92.096C311.792,283.885,308.43,280.525,304.284,280.525z M296.776,372.621h-33.034v-77.08h33.034
	V372.621z"/>
<path d="M383.366,242.485h-48.05c-4.146,0-7.508,3.36-7.508,7.508v130.135c0,4.147,3.362,7.508,7.508,7.508h48.05
	c4.146,0,7.508-3.361,7.508-7.508V249.993C390.874,245.846,387.513,242.485,383.366,242.485z M375.859,372.621h-33.034v-115.12
	h33.034V372.621z"/>
<path d="M462.449,192.433h-48.05c-4.146,0-7.508,3.361-7.508,7.508v102.247c0,4.146,3.361,7.508,7.508,7.508l0,0
	c4.146,0,7.508-3.362,7.508-7.508v-94.739h33.034v165.172h-33.034v-21.579c0-4.146-3.361-7.508-7.508-7.508l0,0
	c-4.146,0-7.508,3.362-7.508,7.508v29.087c0,4.146,3.361,7.508,7.508,7.508h48.05c4.146,0,7.508-3.362,7.508-7.508V199.941
	C469.956,195.795,466.595,192.433,462.449,192.433z"/>
<path d="M420.905,177.918c0,4.147,3.362,7.508,7.508,7.508s7.508-3.36,7.508-7.508v-31.032c0-4.147-3.361-7.508-7.508-7.508h-30.031
	c-4.146,0-7.508,3.36-7.508,7.508c0,4.147,3.362,7.508,7.508,7.508h12.435c-37.665,43.649-88.336,75.068-150.695,93.402
	c-3.978,1.169-6.254,5.343-5.085,9.321c0.961,3.272,3.954,5.393,7.199,5.393c0.702,0,1.414-0.099,2.121-0.307
	c64.478-18.957,117.108-51.417,156.547-96.519v12.236H420.905z"/>
<g>
</g>
<g>
</g>
<g>
</g>
<g>
</g>
<g>
</g>
<g>
</g>
<g>
</g>
<g>
</g>
<g>
</g>
<g>
</g>
<g>
</g>
<g>
</g>
<g>
</g>
<g>
</g>
<g>
</g>
</svg>
