<svg xmlns="http://www.w3.org/2000/svg" xmlns:xlink="http://www.w3.org/1999/xlink" version="1.1" x="0px" y="0px" viewBox="0 0 73 91.25" enable-background="new 0 0 73 73" xml:space="preserve"><g><path d="M42.7,23.2c2,0.4,4.1,1,6,1.8c0.8,0.3,1.4,1.2,1.4,2.1V34H23.7v-6.9c0-0.9,0.5-1.8,1.4-2.1c1.9-0.8,3.9-1.4,6-1.8l4.1,6.9   c0.8,1.3,2.7,1.3,3.4,0L42.7,23.2z M4.9,64.7l1.4-8.3h4.3c1.1,0,2-0.9,2-2s-0.9-2-2-2H6.9l0.7-4h8.3c1.1,0,2-0.9,2-2s-0.9-2-2-2   H8.2L9.3,38h54.5l4.4,26.8H4.9z M67.8,38h2.7c1.2,0,2.2-1.1,2-2.3c-0.2-1-1.1-1.7-2.1-1.7H54v-6.9c0-2.6-1.5-4.8-3.9-5.8   c-2.6-1.1-5.4-1.8-8.2-2.2c-0.8-0.1-1.6,0.3-2,1l-3.1,5.2L33.8,20c-0.4-0.7-1.2-1.1-2-1c-2.8,0.4-5.6,1.1-8.2,2.2   c-2.3,1-3.9,3.2-3.9,5.8V34H2.5c-1.2,0-2.2,1.1-2,2.3c0.1,1,1.1,1.7,2.1,1.7h2.6L0.5,66.4c-0.2,1.2,0.7,2.3,2,2.3h6v1.7   c0,1,0.7,1.9,1.7,2.1c1.2,0.2,2.3-0.8,2.3-2v-1.8h48v1.7c0,1,0.7,1.9,1.7,2.1c1.2,0.2,2.3-0.8,2.3-2v-1.8h6c1.2,0,2.2-1.1,2-2.3   L67.8,38z"/><rect x="34.1" y="48.1" width="4.8" height="13.4"/><path d="M36.5,15.8c4.2,0,7.7-3.4,7.7-7.7s-3.4-7.7-7.7-7.7c-4.2,0-7.7,3.4-7.7,7.7S32.3,15.8,36.5,15.8z M36.5,4.5   c2,0,3.7,1.6,3.7,3.7c0,2-1.6,3.7-3.7,3.7c-2,0-3.7-1.6-3.7-3.7C32.8,6.1,34.5,4.5,36.5,4.5z"/><circle cx="36.5" cy="43.9" r="2.8"/></g><text x="0" y="88" fill="#000000" font-size="5px" font-weight="bold" font-family="'Helvetica Neue', Helvetica, Arial-Unicode, Arial, Sans-serif">Created by Icon Fair</text><text x="0" y="93" fill="#000000" font-size="5px" font-weight="bold" font-family="'Helvetica Neue', Helvetica, Arial-Unicode, Arial, Sans-serif">from the Noun Project</text></svg>