<svg xmlns="http://www.w3.org/2000/svg" xmlns:xlink="http://www.w3.org/1999/xlink" version="1.1" x="0px" y="0px" viewBox="0 0 48 60" style="enable-background:new 0 0 48 48;" xml:space="preserve"><style type="text/css">
	.st0{stroke:#000000;stroke-width:4;stroke-linecap:round;stroke-linejoin:round;stroke-miterlimit:10;}
</style><path d="M24,0.5C11,0.5,0.5,8.9,0.5,19.3S11,38.1,24,38.1c1.2,0,2.5-0.1,3.7-0.2l9.6,9.1c0.4,0.4,0.9,0.5,1.3,0.5  c0.3,0,0.5-0.1,0.8-0.2c0.7-0.3,1.2-1,1.2-1.8V32.6c4.4-3.5,6.9-8.3,6.9-13.3C47.5,8.9,37,0.5,24,0.5z M25.3,30.9  c-0.6,0.5-1.3,0.8-2.2,0.8s-1.6-0.3-2.2-0.8c-0.6-0.6-0.9-1.2-0.9-2c0-0.8,0.3-1.4,0.9-1.9c0.6-0.5,1.3-0.8,2.2-0.8  c0.9,0,1.6,0.3,2.2,0.8c0.6,0.5,0.9,1.2,0.9,1.9C26.2,29.8,25.9,30.4,25.3,30.9z M30.3,15c-0.2,0.5-0.4,1.1-0.7,1.5  c-0.3,0.5-0.7,1-1.1,1.4c-0.4,0.4-0.9,0.9-1.5,1.4c-0.4,0.3-0.7,0.6-1,0.9c-0.3,0.3-0.5,0.5-0.7,0.8s-0.3,0.6-0.4,0.9  c-0.1,0.3-0.1,0.6-0.1,1c0,0.3,0,0.5,0.1,0.8c0.1,0.3,0.2,0.5,0.3,0.7h-4.3c-0.1-0.3-0.2-0.6-0.3-1c-0.1-0.4-0.1-0.7-0.1-1  c0-0.5,0-1,0.1-1.4c0.1-0.4,0.2-0.8,0.4-1.2c0.2-0.4,0.4-0.7,0.7-1.1c0.3-0.3,0.6-0.7,1-1c0.4-0.4,0.8-0.7,1.1-1  c0.3-0.3,0.6-0.6,0.8-0.9c0.2-0.3,0.4-0.6,0.5-0.9c0.1-0.3,0.2-0.7,0.2-1.1c0-0.3-0.1-0.7-0.2-1c-0.1-0.3-0.3-0.5-0.5-0.8  c-0.2-0.2-0.5-0.4-0.8-0.5c-0.3-0.1-0.7-0.2-1.1-0.2c-0.9,0-1.8,0.2-2.7,0.5c-0.9,0.4-1.8,0.9-2.6,1.6v-5c0.8-0.5,1.8-0.9,2.8-1.1  c1-0.3,2-0.4,3.1-0.4c1,0,2,0.1,2.9,0.3c0.9,0.2,1.7,0.6,2.3,1.1c0.7,0.5,1.2,1.1,1.5,1.9c0.4,0.8,0.6,1.7,0.6,2.7  C30.6,13.9,30.5,14.5,30.3,15z"/><text x="0" y="63" fill="#000000" font-size="5px" font-weight="bold" font-family="'Helvetica Neue', Helvetica, Arial-Unicode, Arial, Sans-serif">Created by Vectors Market</text><text x="0" y="68" fill="#000000" font-size="5px" font-weight="bold" font-family="'Helvetica Neue', Helvetica, Arial-Unicode, Arial, Sans-serif">from the Noun Project</text></svg>