<svg xmlns="http://www.w3.org/2000/svg" xmlns:xlink="http://www.w3.org/1999/xlink" version="1.1" x="0px" y="0px" viewBox="0 0 128 160" style="enable-background:new 0 0 128 128;" xml:space="preserve"><path d="M58,4.2L58,4.2c3,0,5.6,1.7,5.9,3.9l1.4,8.9l0.5,3.1l3.1,0.4c4.7,0.6,9.3,1.9,13.6,3.9l2.7,1.3l2-2.2l6.1-6.6  c1-1,2.3-1.2,3.2-1.2c1.8,0,3.6,0.8,5.1,2.1l4.8,4.4c1.5,1.4,2.5,3.3,2.6,5c0,0.8-0.1,1.9-0.9,2.8l-6,6.5l-2.1,2.3l1.7,2.7  c2.2,3.6,3.9,7.4,5,11.5c0.1,0.5,0.3,1.1,0.4,1.8l0.7,3l3.1,0.2l8.8,0.6c1.2,0.1,2.1,0.8,2.6,1.4c1.2,1.3,1.8,3.4,1.6,5.5l-0.5,6.4  c-0.2,3.5-2.5,6.3-4.9,6.3c-0.1,0-0.1,0-0.2,0l-8.8-0.6l-3.1-0.2l-1.1,2.9c-1.7,4.6-4.1,8.8-7.2,12.6l-2,2.4l1.8,2.6l5,7.2  c0.6,0.9,0.6,2,0.5,2.7c-0.3,1.7-1.6,3.5-3.3,4.7l-5.5,3.8c-1.4,1-3,1.5-4.6,1.5c-1.6,0-2.9-0.6-3.6-1.6l-5-7.2l-1.7-2.5l-2.9,0.9  c-0.5,0.2-1.2,0.4-1.9,0.6c-3.9,1.1-8,1.6-12.1,1.6l-0.3,0l-3.1,0l-0.9,3l-2.6,8.5c-0.5,1.8-2.7,3-5.3,3c-0.8,0-1.7-0.1-2.5-0.4  l-6.3-1.9c-2-0.6-3.7-1.8-4.5-3.4c-0.4-0.7-0.8-1.8-0.4-3l2.6-8.6l0.9-3l-2.6-1.7c-4-2.6-7.5-5.8-10.4-9.5L25.5,90l-2.9,1.1  l-8.4,3.4c-0.4,0.2-0.9,0.3-1.4,0.3c-2.3,0-4.6-1.9-5.7-4.6l-2.4-6c-0.8-1.9-0.8-3.9-0.1-5.6c0.3-0.8,1-1.9,2.3-2.4l8.5-3.4l2.9-1.1  l-0.3-3.1c-0.4-4.7-0.1-9.4,1-13.9l0.7-3.1l-2.7-1.5l-8-4.5C7.9,45,7.4,43.9,7.2,43C6.7,41.3,7,39.3,8,37.6l3.3-5.7  c1.3-2.3,3.6-3.8,5.8-3.8c0.7,0,1.4,0.2,2,0.5l8,4.5l2.7,1.5l2.2-2.1c3.4-3.2,7.2-5.9,11.5-7.9l2.8-1.3l-0.5-3.1l-1.4-9  c-0.2-1.6,0.6-2.9,1.2-3.5c1.1-1.3,2.8-2.2,4.6-2.4l6.6-1C57.1,4.2,57.5,4.2,58,4.2 M58,0c-0.7,0-1.3,0.1-2,0.2l-6.6,1  c-5.9,0.9-10,5.7-9.2,10.7l1.4,9c-4.7,2.3-8.9,5.2-12.5,8.6c0,0-3.6-2-8-4.5c-1.2-0.7-2.6-1-4-1c-3.5,0-7.2,2.2-9.4,5.9l-3.3,5.7  c-3,5.2-1.8,11.3,2.6,13.8l8,4.5c-1.2,4.9-1.6,10-1.1,15.2c0,0-3.8,1.5-8.5,3.4c-4.7,1.9-6.7,7.9-4.5,13.4l2.4,6  c1.8,4.4,5.7,7.1,9.5,7.1c1,0,2-0.2,2.9-0.6l8.4-3.4c3.2,4.1,7.1,7.6,11.3,10.4c0,0-1.2,3.8-2.6,8.6c-1.4,4.7,2,9.9,7.7,11.6  l6.3,1.9c1.2,0.4,2.5,0.5,3.6,0.5c4.3,0,8.1-2.3,9.2-5.9l2.6-8.5c0.1,0,0.2,0,0.4,0c4.3,0,8.8-0.6,13.2-1.8c0.7-0.2,1.4-0.4,2.1-0.6  c0,0,2.2,3.2,5,7.2c1.5,2.2,4.1,3.3,7,3.3c2.3,0,4.7-0.7,6.9-2.2l5.5-3.8c4.9-3.4,6.6-9.3,3.9-13.3l-5-7.1c3.4-4.1,6-8.8,7.9-13.8  c0,0,3.9,0.3,8.8,0.6c0.2,0,0.3,0,0.5,0c4.6,0,8.6-4.4,9.1-10.2l0.5-6.4c0.4-5.9-3.2-11-8.1-11.3l-8.8-0.6c-0.1-0.6-0.3-1.3-0.5-1.9  c-1.2-4.5-3.1-8.7-5.4-12.5c0,0,2.7-2.9,6-6.5c3.3-3.6,2.5-9.8-1.9-13.7l-4.8-4.4c-2.3-2.1-5.2-3.2-7.9-3.2c-2.4,0-4.6,0.9-6.2,2.6  l-6.1,6.6c-4.6-2.2-9.6-3.6-14.8-4.3c0,0-0.6-4-1.4-8.9C67.3,3,63,0,58,0L58,0z"/><path d="M62.9,31.2c-18.3,0-33.1,14.9-33.1,33.3c0,18.4,14.8,33.3,33.1,33.3c18.3,0,33.1-14.9,33.1-33.3  C96.1,46.2,81.2,31.2,62.9,31.2z M81.7,75.1c-0.2,0-0.3-0.1-0.5-0.1L71,68.5c-0.6-0.4-1.3-0.2-1.7,0.4c-0.4,0.6-0.2,1.3,0.4,1.7  l10.1,6.4c0,0.5,0,1.1-0.4,1.6c-0.4,0.5-1.1,0.8-2.2,0.8l-6.8-3.8c-0.6-0.3-1.3-0.1-1.7,0.5c-0.3,0.6-0.1,1.3,0.5,1.7l6.2,3.5  c-0.1,0.4-0.4,1-0.9,1.4c-0.5,0.4-1.3,0.6-2.3,0.4l-3.6-2.2c-0.6-0.3-1.3-0.2-1.7,0.4c-0.3,0.6-0.2,1.3,0.4,1.7l2.7,1.6  c-0.3,0.6-0.7,1.2-1.3,1.5c-0.2,0.1-0.5,0.2-1.1-0.1c-1.7-0.9-3.6-2-4.6-2.5c1.1-1.7,0.8-4-0.9-5.2c-0.5-0.3-1-0.6-1.5-0.7  c0.2-0.6,0.2-1.1,0.1-1.7c-0.2-1-0.7-1.9-1.5-2.5c-0.5-0.4-1.1-0.6-1.8-0.7c0.5-1.5,0-3.3-1.3-4.3c-1.6-1.2-4.1-0.9-5.3,0.7  l-1.8,2.5c-0.3-0.4-0.6-0.8-1-1.2c-1.5-1.2-3.8-0.9-5.1,0.5c-2.9-1.9-5.9-6.3-5.9-6.3c0-0.1-0.1-0.1-0.2-0.2L45,51  c2.2,2.2,5.4,2.8,7.8,2.9c-0.9,1.1-1.7,2.2-2.4,3.5c-0.6,1.1-1.4,2.7-0.9,4.6c0.1,0.2,0.7,1.8,2.5,2.3c1.3,0.4,2.8-0.1,4.5-1.4  l5.3-4.8c0.2-0.2,1.1-0.3,2.9,0.9l3.7,2.4c4.3,2.8,8.7,5.6,13.1,8.8c1.2,0.9,3,2.1,2.7,3.4c-0.1,0.5-0.3,0.9-0.6,1.1  C83.2,75.2,82.5,75.3,81.7,75.1z M43,74.9l1.7-2.3c0.2-0.3,0.6-0.5,1-0.5c0.3,0,0.6,0.1,0.9,0.3c0.3,0.2,0.5,0.6,0.6,0.9  c0.1,0.3,0,0.7-0.2,1l-1.7,2.3c-0.4,0.6-1.3,0.7-1.9,0.2c-0.3-0.2-0.5-0.6-0.6-0.9C42.7,75.5,42.8,75.1,43,74.9z M47.3,78.1l5.6-7.6  c0.2-0.3,0.6-0.5,1-0.5c0.3,0,0.6,0.1,0.9,0.3c0.6,0.5,0.8,1.3,0.3,1.9l-5.6,7.6c-0.4,0.6-1.3,0.7-1.9,0.2c-0.3-0.2-0.5-0.6-0.6-0.9  C47,78.7,47.1,78.4,47.3,78.1z M51.7,81.4l4.3-5.8c0.2-0.3,0.6-0.5,1-0.5c0.3,0,0.6,0.1,0.9,0.3c0.3,0.2,0.5,0.6,0.6,0.9  c0.1,0.4,0,0.7-0.2,1L53.9,83c-0.4,0.6-1.3,0.7-1.9,0.2C51.4,82.8,51.3,82,51.7,81.4z M55.9,84.5C55.9,84.5,55.9,84.5,55.9,84.5  l0.4-0.5l2.6-3.5c0.2-0.3,0.6-0.5,1-0.5c0.3,0,0.6,0.1,0.9,0.3c0.6,0.5,0.8,1.3,0.3,1.9l-3,4.1c-0.4,0.6-1.3,0.7-1.9,0.2  c-0.3-0.2-0.5-0.6-0.6-0.9C55.6,85.1,55.7,84.8,55.9,84.5z M84.7,69.6c-0.6-0.6-1.3-1-1.8-1.4c-4.3-3.1-8.8-6-13.1-8.7L66,57  c-3.8-2.5-5.6-1-6.1-0.5l-5.1,4.5c-0.9,0.7-1.7,1-2.3,0.9c-0.5-0.1-0.8-0.7-0.8-0.7h0c-0.1-0.7,0.1-1.5,0.7-2.7  c1.6-2.8,5.1-7.7,10.7-8.4c2.5-0.3,5.5,0,9.2,0.9c1.1,0.3,2.2,0.6,3.3,1.1c0.6,0.3,1.1,0.6,1.7,0.4l4.2-1c0.1,0,0.1-0.1,0.2-0.1  l8.2,14L84.7,69.6z M79.8,40.9l-2.6,2.7l3.4,5.8l-3.4,0.9c-0.1,0-0.2-0.1-0.3-0.2c-0.2-0.1-0.3-0.2-0.4-0.2  c-1.1-0.4-2.2-0.8-3.4-1.1c-4.1-1.1-7.3-1.4-10.2-1c-2.7,0.4-5.3,1.6-7.6,3.6c-1.3,0.1-6.1,0.5-8.5-2.2c-0.1-0.1-0.3-0.2-0.5-0.3  l4.4-7.2L48.9,39c4.1-2.3,8.9-3.6,14-3.6C69.2,35.4,75,37.4,79.8,40.9z M62.9,93.7c-14.6,0-26.8-11-28.7-25.1l0.1,0l1.2-2  c1,1.4,3.4,4.5,6,6.2L41,73.4c-0.6,0.8-0.8,1.8-0.7,2.8c0.2,1,0.7,1.9,1.5,2.5c0.7,0.5,1.5,0.8,2.3,0.8c0.2,0,0.3,0,0.5-0.1  c0.2,1,0.7,1.9,1.5,2.5c0.7,0.5,1.5,0.8,2.3,0.8c0.2,0,0.4,0,0.6-0.1c0.1,1,0.7,1.9,1.5,2.6c0.7,0.5,1.5,0.8,2.3,0.8  c0.1,0,0.3,0,0.4,0c0.2,1,0.7,1.8,1.5,2.4c0.7,0.5,1.5,0.8,2.3,0.8c1.2,0,2.3-0.5,3-1.5l1.6-2.2c0.8,0.5,2.2,1.3,4.9,2.7  c0.7,0.3,1.3,0.5,1.8,0.5c0.5,0,1-0.1,1.3-0.3c1.4-0.6,2.2-1.9,2.6-2.8c0.2,0,0.4,0,0.6,0c1.2,0,2.2-0.3,3.1-1  c1-0.8,1.5-1.9,1.7-2.7c1.5-0.1,2.7-0.7,3.5-1.6c0.7-0.8,0.9-1.8,1-2.6c0,0,0.1,0,0.1,0c1,0,1.9-0.3,2.7-0.8  c0.9-0.6,1.5-1.6,1.7-2.8c0.2-1-0.1-1.8-0.5-2.6l5.1-3.9l0.3,0.6C89.9,82.5,77.7,93.7,62.9,93.7z"/><text x="0" y="143" fill="#000000" font-size="5px" font-weight="bold" font-family="'Helvetica Neue', Helvetica, Arial-Unicode, Arial, Sans-serif">Created by Creative Mahira</text><text x="0" y="148" fill="#000000" font-size="5px" font-weight="bold" font-family="'Helvetica Neue', Helvetica, Arial-Unicode, Arial, Sans-serif">from the Noun Project</text></svg>