<svg xmlns:dc="http://purl.org/dc/elements/1.1/" xmlns:cc="http://creativecommons.org/ns#" xmlns:rdf="http://www.w3.org/1999/02/22-rdf-syntax-ns#" xmlns:svg="http://www.w3.org/2000/svg" xmlns="http://www.w3.org/2000/svg" xmlns:sodipodi="http://sodipodi.sourceforge.net/DTD/sodipodi-0.dtd" xmlns:inkscape="http://www.inkscape.org/namespaces/inkscape" version="1.1" x="0px" y="0px" viewBox="0 0 100 125"><g transform="translate(0,-952.36218)"><path style="text-indent:0;text-transform:none;direction:ltr;block-progression:tb;baseline-shift:baseline;color:#000000;enable-background:accumulate;" d="m 11,956.56918 c -4.9341099,0 -9,4.06589 -9,9 l 0,40.00002 c 0,4.9341 4.0658901,9 9,9 l 5.65625,0 L 15,1031.2567 c -0.13992,1.2322 0.57265,2.5154 1.69249,3.048 1.11985,0.5326 2.56499,0.2756 3.43251,-0.6105 l 19.125,-19.125 8.6875,0 0,15.9688 c 0,4.0756 3.28877,7.5134 7.375,7.5312 l 17.4375,0.094 10.1875,9.2188 c 0.89287,0.8098 2.29955,1.0132 3.375,0.4687 1.07545,-0.5444 1.74909,-1.801 1.625,-3 l -0.65625,-6.6875 3.3125,0 c 4.10201,0 7.40625,-3.4869 7.40625,-7.5625 l 0,-28.4375 c 0,-4.07563 -3.28191,-7.55243 -7.375,-7.56252 l -8.625,0 0,-29.03125 c 0,-4.93411 -4.06589,-9 -9,-9 z m 0,6 62,0 c 1.71391,0 3,1.28608 3,3 l 0,29 -20.65625,-0.0312 c -4.11025,-0.009 -7.40625,3.45569 -7.40625,7.53132 l 0,6.4999 -9.9375,0 c -0.78611,0 -1.56815,0.3202 -2.125,0.875 L 21.84375,1023.4755 23,1011.8505 c 0.15631,-1.6617 -1.33097,-3.2884 -3,-3.2813 l -9,0 c -1.7139099,0 -2.9999999,-1.2861 -2.9999999,-3 l 0,-40.00002 c 0,-1.71392 1.28609,-3 2.9999999,-3 z m 27.90625,1.96875 c -6.09389,0 -11.49111,3.65854 -12.8125,9.15625 -0.51992,1.56959 0.53549,3.47078 2.14259,3.8596 1.60709,0.38881 3.41485,-0.81968 3.66991,-2.45335 0.56215,-2.33885 3.33259,-4.5625 7,-4.5625 4.19753,0 7.09375,2.74912 7.09375,5.59375 0,5.41868 -1.55139,6.40361 -4.03125,8.6875 C 39.48889,987.10307 36,990.73103 36,997.53797 c -0.0224,1.5849 1.4149,3.04273 3,3.04273 1.5851,0 3.02241,-1.45783 3,-3.04273 0,-5.1317 1.51111,-5.99156 4.03125,-8.31254 C 48.55139,986.90445 52,983.15749 52,976.13168 52,969.47841 45.86452,964.53793 38.90625,964.53793 z m 16.4375,36.00007 35.25,0.062 c 0.77417,0 1.40625,0.5947 1.40625,1.5625 l 0,28.4375 c 0,0.9676 -0.64098,1.5625 -1.40625,1.5625 l -6.65625,0 c -1.67011,0.01 -3.14256,1.6514 -2.96875,3.3125 l 0.21875,2.2187 -5.25,-4.75 c -0.54134,-0.4926 -1.26806,-0.7765 -2,-0.7812 l -18.59375,-0.094 c -0.78101,0 -1.40625,-0.5636 -1.40625,-1.5313 l 0,-28.4687 c 0,-0.9678 0.64924,-1.533 1.40625,-1.5313 z m -16.34375,1 c -1.65685,0 -3,1.3431 -3,3 0,1.6568 1.34315,3 3,3 1.65685,0 3,-1.3432 3,-3 0,-1.6569 -1.34315,-3 -3,-3 z m 33,0 c -1.65685,0 -3,1.3431 -3,3 l 0,16 c 0,1.6568 1.34315,3 3,3 1.65685,0 3,-1.3432 3,-3 l 0,-16 c 0,-1.6569 -1.34315,-3 -3,-3 z m 0,23 c -1.65685,0 -3,1.3431 -3,3 0,1.6568 1.34315,3 3,3 1.65685,0 3,-1.3432 3,-3 0,-1.6569 -1.34315,-3 -3,-3 z" fill="#000000" fill-opacity="1" stroke="none" marker="none" visibility="visible" display="inline" overflow="visible"/></g><text x="0" y="115" fill="#000000" font-size="5px" font-weight="bold" font-family="'Helvetica Neue', Helvetica, Arial-Unicode, Arial, Sans-serif">Created by iconsphere</text><text x="0" y="120" fill="#000000" font-size="5px" font-weight="bold" font-family="'Helvetica Neue', Helvetica, Arial-Unicode, Arial, Sans-serif">from the Noun Project</text></svg>