<svg xmlns="http://www.w3.org/2000/svg" xmlns:xlink="http://www.w3.org/1999/xlink" version="1.1" x="0px" y="0px" viewBox="0 0 100 125" enable-background="new 0 0 100 100" xml:space="preserve"><path d="M51.955,41.704h-0.754l-0.039,0.043c-2.518,2.494-5.683,4.123-9.154,4.708l-0.391,0.068l2.412,1.382l-4.43,5.022  l3.104,13.896l-3.551,7.287l-3.545-7.287l3.098-13.896l-4.432-5.022l2.412-1.382l-0.388-0.068c-0.866-0.147-1.716-0.36-2.54-0.634  h-0.002c-0.422-0.139-0.836-0.295-1.243-0.468c-1.984-0.838-3.803-2.056-5.368-3.606l-0.043-0.043H26.35  c-6.693,0-12.141,5.447-12.141,12.141v8.134h0.125l1.197-0.011c0.182,0,0.356,0.014,0.529,0.042  c1.237,0.201,2.236,1.102,2.469,2.288l0.309,1.582l0.063,0.031c0.082,0.043,0.164,0.091,0.252,0.145l0.06,0.034l1.5-0.553  c0.292-0.11,0.606-0.164,0.935-0.164c1.056,0,2.064,0.598,2.633,1.557l1.314,2.224c0.762,1.282,0.555,2.876-0.493,3.793  l-1.218,1.065v0.067c0.004,0.091,0.004,0.179,0.004,0.269v0.065l1.248,1.045c0.221,0.188,0.413,0.408,0.568,0.659l0.043,0.069  h38.349V53.845C64.095,47.151,58.65,41.704,51.955,41.704z"/><path d="M32.368,42.95c2.038,1.042,4.346,1.631,6.786,1.631c8.239,0,14.94-6.702,14.94-14.941c0-0.894-0.079-1.771-0.231-2.623  c-0.238-1.34-0.654-2.619-1.227-3.812c-2.409-5.025-7.545-8.504-13.482-8.504c-8.238,0-14.943,6.704-14.943,14.938  c0,4.019,1.594,7.671,4.183,10.357C29.543,41.189,30.885,42.189,32.368,42.95z"/><path d="M16.726,83.864l0.437-2.534c0.006-0.03,0.008-0.063,0.012-0.097c0.324-0.133,0.656-0.297,0.979-0.487  c0.323-0.192,0.626-0.401,0.9-0.625c0.031,0.018,0.063,0.028,0.097,0.04l2.435,0.838c0.065,0.022,0.137,0.034,0.21,0.034  c0.319,0,0.663-0.225,0.849-0.558l1.266-2.255c0.235-0.415,0.189-0.934-0.104-1.178l-1.977-1.653  c-0.025-0.02-0.055-0.039-0.08-0.059c0.1-0.723,0.094-1.461-0.022-2.191c0.026-0.021,0.051-0.037,0.077-0.061l1.936-1.689  c0.287-0.252,0.32-0.77,0.076-1.184l-1.316-2.223c-0.191-0.325-0.535-0.544-0.852-0.544c-0.079,0-0.152,0.015-0.224,0.041  l-2.413,0.886c-0.027,0.009-0.053,0.019-0.078,0.033c-0.584-0.459-1.231-0.823-1.928-1.09c-0.004-0.028-0.006-0.057-0.012-0.09  l-0.465-2.387l-0.027-0.14c-0.049-0.242-0.247-0.449-0.514-0.566c-0.139-0.06-0.299-0.093-0.467-0.093l-2.564,0.028  c-0.476,0.003-0.9,0.298-0.966,0.674l-0.433,2.54c-0.006,0.025-0.01,0.051-0.01,0.073c-0.348,0.139-0.693,0.309-1.023,0.507  c-0.317,0.188-0.627,0.401-0.916,0.637c-0.021-0.008-0.041-0.018-0.07-0.028l-2.434-0.838c-0.066-0.022-0.137-0.034-0.207-0.034  c-0.323,0-0.666,0.221-0.85,0.553l-1.258,2.236c-0.232,0.416-0.187,0.931,0.105,1.176l1.979,1.647c0.02,0.017,0.04,0.03,0.057,0.042  c-0.104,0.75-0.096,1.506,0.023,2.248c-0.021,0.017-0.043,0.033-0.063,0.054l-1.939,1.687c-0.289,0.25-0.322,0.765-0.08,1.176  l1.167,1.97l0.142,0.241c0.164,0.277,0.441,0.476,0.717,0.523c0.042,0.009,0.084,0.011,0.127,0.011c0.08,0,0.155-0.013,0.224-0.038  l2.415-0.888c0.025-0.008,0.049-0.02,0.07-0.027L9.738,80.2c0.584,0.456,1.238,0.823,1.939,1.093  c0.003,0.03,0.008,0.063,0.014,0.091l0.496,2.528c0.073,0.368,0.501,0.656,0.971,0.656l2.6-0.021  C16.236,84.538,16.661,84.24,16.726,83.864z M17.94,75.084c-0.243,0.954-0.844,1.755-1.69,2.257  c-0.566,0.333-1.212,0.513-1.868,0.513c-1.297,0-2.515-0.697-3.177-1.813c-1.036-1.75-0.459-4.015,1.289-5.048  c0.565-0.337,1.214-0.516,1.867-0.516c1.3,0,2.518,0.693,3.178,1.813C18.043,73.137,18.184,74.131,17.94,75.084z"/><path d="M14.334,72.153c-0.383,0-0.76,0.105-1.09,0.301c-1.018,0.604-1.354,1.919-0.754,2.939c0.385,0.647,1.096,1.053,1.852,1.053  c0.383,0,0.76-0.103,1.09-0.301c0.493-0.291,0.842-0.756,0.982-1.313c0.143-0.555,0.06-1.132-0.231-1.624  C15.797,72.559,15.09,72.153,14.334,72.153z"/><path d="M26.117,85.002l-1.229-0.238c-0.009-0.003-0.018-0.005-0.025-0.005c-0.128-0.326-0.301-0.634-0.516-0.915  c0.002-0.006,0.006-0.014,0.008-0.022l0.434-1.181c0.068-0.192-0.045-0.441-0.26-0.569l-1.079-0.634  c-0.207-0.125-0.489-0.102-0.62,0.046l-0.824,0.954c-0.003,0.005-0.006,0.008-0.008,0.011c-0.174-0.029-0.357-0.043-0.541-0.045  h-0.031c-0.162,0-0.328,0.011-0.496,0.034c-0.006-0.003-0.008-0.009-0.011-0.016l-0.807-0.965c-0.128-0.149-0.408-0.175-0.618-0.056  l-1.092,0.616c-0.216,0.125-0.334,0.371-0.27,0.562l0.416,1.199c0,0.004,0.004,0.004,0.004,0.004  c-0.228,0.279-0.408,0.589-0.545,0.92c-0.005,0-0.014,0.002-0.02,0.002l-1.236,0.216c-0.201,0.037-0.36,0.258-0.36,0.509  l-0.011,1.255c-0.004,0.252,0.152,0.476,0.351,0.513l1.235,0.24l0.019,0.003c0.128,0.325,0.301,0.635,0.519,0.92  c-0.002,0.006-0.006,0.015-0.008,0.022l-0.432,1.184c-0.07,0.19,0.046,0.439,0.261,0.566l1.087,0.643  c0.094,0.055,0.201,0.082,0.304,0.082c0.134,0,0.246-0.045,0.319-0.13l0.822-0.948c0.008-0.009,0.014-0.015,0.02-0.022  c0.164,0.024,0.336,0.036,0.515,0.039h0.04c0.161,0,0.322-0.012,0.479-0.031c0.006,0.009,0.014,0.017,0.02,0.026l0.807,0.965  c0.07,0.085,0.189,0.136,0.326,0.136c0.102,0,0.207-0.028,0.294-0.079l1.099-0.623c0.219-0.124,0.337-0.371,0.271-0.563l-0.41-1.191  c-0.003-0.009-0.006-0.017-0.012-0.026c0.219-0.269,0.395-0.568,0.529-0.894c0.009,0,0.018,0,0.029-0.003l1.236-0.219  c0.199-0.037,0.357-0.261,0.359-0.512l0.012-1.26C26.471,85.265,26.318,85.039,26.117,85.002z M21.488,84.286  c0.971,0.008,1.755,0.809,1.746,1.781c-0.008,0.964-0.798,1.752-1.777,1.752c-0.471-0.007-0.912-0.192-1.24-0.53  c-0.331-0.337-0.51-0.781-0.504-1.254c0.006-0.963,0.799-1.749,1.761-1.749v-0.071L21.488,84.286z"/><path d="M20.342,86.089c-0.006,0.601,0.475,1.09,1.072,1.097h0.012c0.592,0,1.078-0.485,1.084-1.077c0-0.291-0.11-0.563-0.312-0.77  c-0.203-0.207-0.476-0.323-0.775-0.323C20.831,85.016,20.347,85.498,20.342,86.089z M21.426,87.113L21.426,87.113L21.426,87.113  L21.426,87.113z"/><path d="M71.172,42.636c0.301,0.037,0.604,0.004,0.884-0.102l3.072,3.148c-0.012,0.054-0.022,0.107-0.028,0.162  c-0.066,0.494,0.067,0.981,0.373,1.378c0.303,0.393,0.742,0.646,1.238,0.71c0.078,0.01,0.161,0.015,0.24,0.015  c0.932,0,1.727-0.7,1.846-1.626c0.02-0.155,0.02-0.313,0-0.475l7.197-7.315c0.096,0.027,0.184,0.048,0.269,0.056  c0.425,0.057,0.854-0.036,1.22-0.263l2.814,1.911l0.994-1.459l-2.928-1.987c0.025-0.948-0.68-1.777-1.623-1.899  c-0.081-0.009-0.16-0.015-0.24-0.015c-0.934,0-1.729,0.7-1.848,1.626c-0.035,0.271-0.009,0.541,0.073,0.804l-6.981,7.095  c-0.179-0.085-0.365-0.141-0.559-0.167c-0.305-0.036-0.611,0-0.9,0.108l-3.061-3.135c0.018-0.068,0.029-0.127,0.035-0.182  c0.064-0.495-0.068-0.984-0.371-1.378c-0.307-0.394-0.745-0.646-1.238-0.711c-0.082-0.009-0.16-0.014-0.24-0.014  c-0.934,0-1.727,0.699-1.849,1.625c-0.009,0.079-0.014,0.167-0.011,0.26l-5.617,3.101l0.855,1.545l5.613-3.1  C70.637,42.503,70.898,42.599,71.172,42.636z"/><path d="M86.248,41.948c-0.348,0-0.633,0.283-0.633,0.632v9.957c0,0.348,0.285,0.634,0.633,0.634h2.532  c0.348,0,0.634-0.286,0.634-0.634V42.58c0-0.349-0.286-0.632-0.634-0.632H86.248z"/><path d="M79.756,46.668c-0.35,0-0.633,0.283-0.633,0.631v5.238c0,0.348,0.283,0.634,0.633,0.634h2.532  c0.349,0,0.631-0.286,0.631-0.634v-5.238c0-0.348-0.282-0.631-0.631-0.631H79.756z"/><path d="M73.262,50.515c-0.351,0-0.635,0.286-0.635,0.635v1.388c0,0.348,0.284,0.634,0.635,0.634h2.531  c0.349,0,0.631-0.286,0.631-0.634v-1.388c0-0.349-0.282-0.635-0.631-0.635H73.262z"/><path d="M66.768,53.171h2.531c0.348,0,0.634-0.286,0.634-0.634v-3.649c0-0.352-0.286-0.634-0.634-0.634h-2.531  c-0.349,0-0.631,0.282-0.631,0.634v3.649C66.137,52.885,66.419,53.171,66.768,53.171z"/><path d="M71.063,17.486h13.012c0.955,0,1.73-0.778,1.73-1.732v-1.802c0-0.325-0.092-0.633-0.252-0.895  c-0.063-0.11-0.143-0.212-0.232-0.303c-0.314-0.331-0.756-0.534-1.246-0.534h-1.073v-1.38c0-0.956-0.775-1.731-1.729-1.731h-7.406  c-0.954,0-1.73,0.775-1.73,1.731v1.38h-1.072c-0.955,0-1.73,0.779-1.73,1.731v1.802c0,0.348,0.105,0.676,0.283,0.949  C69.924,17.175,70.456,17.486,71.063,17.486z"/><rect x="66.674" y="19.913" width="21.789" height="3.587"/><rect x="66.674" y="26.529" width="21.789" height="3.59"/><rect x="66.759" y="33.288" width="12.345" height="3.59"/><path d="M63.002,44.918l0.125,0.153l0.047-28.691l4.244,0.011l-0.017-0.085c-0.034-0.182-0.054-0.37-0.054-0.549v-1.801  c0-0.294,0.049-0.583,0.096-0.827l0.012-0.065l0.003-0.019h-4.354c-1.838,0-3.329,1.495-3.329,3.329v25.613l0.031,0.022  C61.008,42.806,62.084,43.782,63.002,44.918z"/><path d="M95.057,14.989c-0.357-0.778-1.006-1.396-1.807-1.713c-0.377-0.147-0.787-0.229-1.217-0.229H87.67l0.02,0.088  c0.07,0.308,0.102,0.57,0.102,0.82v1.798c0,0.068-0.002,0.135-0.008,0.2c-0.009,0.092-0.02,0.18-0.033,0.27  c-0.006,0.045-0.012,0.087-0.021,0.133l-0.012,0.083l4.306,0.006l0.004,39.233H66.164v3.336h25.863c1.834,0,3.33-1.492,3.33-3.33  l0.002-39.311C95.359,15.881,95.252,15.412,95.057,14.989z"/><text x="0" y="115" fill="#000000" font-size="5px" font-weight="bold" font-family="'Helvetica Neue', Helvetica, Arial-Unicode, Arial, Sans-serif">Created by YuguDesign </text><text x="0" y="120" fill="#000000" font-size="5px" font-weight="bold" font-family="'Helvetica Neue', Helvetica, Arial-Unicode, Arial, Sans-serif">from the Noun Project</text></svg>