<?xml version="1.0" encoding="iso-8859-1"?>
<!-- Generator: Adobe Illustrator 19.0.0, SVG Export Plug-In . SVG Version: 6.00 Build 0)  -->
<svg version="1.1" id="Capa_1" xmlns="http://www.w3.org/2000/svg" xmlns:xlink="http://www.w3.org/1999/xlink" x="0px" y="0px"
	 viewBox="0 0 511.999 511.999" style="enable-background:new 0 0 511.999 511.999;" xml:space="preserve">
<g>
	<path style="fill:#FFC433;" d="M421.252,190.79c2.703,5.081,8.034,8.55,14.19,8.55c8.883,0,16.083-7.201,16.083-16.083
		s-7.201-16.084-16.083-16.084c-6.157,0-11.487,3.47-14.19,8.55V190.79z"/>
	<path style="fill:#FFC433;" d="M421.252,246.603c2.703,5.081,8.034,8.551,14.19,8.551c8.883,0,16.083-7.201,16.083-16.083
		s-7.201-16.084-16.083-16.084c-6.157,0-11.487,3.47-14.19,8.55V246.603z"/>
	<path style="fill:#FFC433;" d="M149.121,474.057c-5.081,2.703-8.55,8.034-8.55,14.19c0,8.883,7.201,16.083,16.083,16.083
		s16.084-7.201,16.084-16.083c0-6.157-3.47-11.488-8.55-14.19H149.121z"/>
	<path style="fill:#FFC433;" d="M204.933,474.057c-5.081,2.703-8.55,8.034-8.55,14.19c0,8.883,7.201,16.083,16.084,16.083
		s16.083-7.201,16.083-16.083c0-6.157-3.47-11.488-8.55-14.19H204.933z"/>
	<path style="fill:#FFC433;" d="M92.403,474.172c-5.1,2.697-8.585,8.039-8.585,14.21c0,8.883,7.201,16.083,16.084,16.083
		s16.084-7.201,16.084-16.083c0-6.142-3.454-11.462-8.514-14.171L92.403,474.172z"/>
</g>
<g>
	<path style="fill:#F23466;" d="M174.206,10.208c-8.422,3.426-13.954,8.869-13.954,8.869c-2.555-0.04-4.918,0.092-7.132,0.354
		c-30.614,3.605-29.847,33.909-29.847,33.909c-17.551,4.074-22.497,16.054-23.243,26.505c-0.673,9.433,2.075,17.619,2.075,17.619
		c-1.561,0.628-3.014,1.327-4.387,2.074c-22.766,12.378-20.656,44.842-20.656,44.842h127.021V12.495
		C193.001,5.493,182.276,6.925,174.206,10.208z"/>
	<path style="fill:#F23466;" d="M235.321,12.495V144.38h127.02c0,0,2.385-35.886-25.044-46.916c0,0,12.224-36.373-21.167-44.124
		c0,0,0.899-34.858-36.979-34.261C279.152,19.077,257.966-1.814,235.321,12.495z"/>
</g>
<path style="opacity:0.1;enable-background:new    ;" d="M341.767,99.63c0.02-0.031,0.043-0.061,0.063-0.092
	c-1.374-0.747-2.826-1.447-4.387-2.074c0,0,2.748-8.187,2.075-17.619c-0.048-0.001-0.095,0.009-0.145,0.009
	c-0.743-10.453-5.688-22.439-23.244-26.515c0,0,0.761-30.195-29.69-33.887c-0.004-0.007-0.007-0.015-0.011-0.022
	c-0.169-0.02-0.346-0.034-0.516-0.052c-0.085-0.009-0.173-0.017-0.259-0.026c-0.958-0.098-1.941-0.175-2.958-0.221
	c-0.101-0.005-0.206-0.006-0.307-0.01c-1.002-0.04-2.026-0.06-3.091-0.043c0,0-5.532-5.443-13.954-8.869
	c-0.009,0.016-0.016,0.032-0.025,0.048c-8.084-3.318-18.861-4.798-29.997,2.239v3.114c2.703,1.941,4.262,3.468,4.262,3.468
	c1.065-0.017,2.089,0.003,3.091,0.043c0.101,0.004,0.206,0.006,0.307,0.01c1.018,0.046,2,0.123,2.958,0.221
	c0.086,0.009,0.174,0.017,0.259,0.026c0.171,0.018,0.347,0.032,0.516,0.052c0.004,0.007,0.007,0.015,0.011,0.022
	c30.451,3.692,29.69,33.887,29.69,33.887c17.556,4.075,22.5,16.061,23.244,26.515c0.048,0,0.095-0.01,0.145-0.009
	c0.673,9.433-2.075,17.619-2.075,17.619c1.561,0.628,3.014,1.327,4.387,2.074c-0.02,0.031-0.043,0.061-0.063,0.092
	c22.681,12.915,20.575,44.75,20.575,44.75h39.713C362.342,144.38,364.448,112.545,341.767,99.63z"/>
<path style="opacity:0.1;enable-background:new    ;" d="M97.662,99.63c-0.02-0.031-0.043-0.061-0.063-0.092
	c1.374-0.747,2.826-1.447,4.387-2.074c0,0-2.748-8.187-2.075-17.619c0.048-0.001,0.095,0.009,0.145,0.009
	c0.743-10.453,5.688-22.439,23.244-26.515c0,0-0.761-30.195,29.69-33.887c0.004-0.007,0.007-0.015,0.011-0.022
	c0.169-0.02,0.346-0.034,0.516-0.052c0.085-0.009,0.173-0.017,0.259-0.026c0.958-0.098,1.941-0.175,2.958-0.221
	c0.101-0.005,0.206-0.006,0.307-0.01c1.002-0.04,2.026-0.06,3.091-0.043c0,0,5.532-5.443,13.954-8.869
	c0.009,0.016,0.016,0.032,0.025,0.048c8.084-3.318,18.861-4.798,29.997,2.239v3.114c-2.703,1.941-4.262,3.468-4.262,3.468
	c-1.065-0.017-2.089,0.003-3.091,0.043c-0.101,0.004-0.206,0.006-0.307,0.01c-1.018,0.046-2,0.123-2.958,0.221
	c-0.086,0.009-0.174,0.017-0.259,0.026c-0.171,0.018-0.347,0.032-0.516,0.052c-0.004,0.007-0.007,0.015-0.011,0.022
	c-30.452,3.692-29.69,33.887-29.69,33.887c-17.556,4.075-22.5,16.061-23.244,26.515c-0.048,0-0.095-0.01-0.145-0.009
	c-0.673,9.433,2.075,17.619,2.075,17.619c-1.561,0.628-3.014,1.327-4.387,2.074c0.02,0.031,0.043,0.061,0.063,0.092
	c-22.681,12.915-20.575,44.75-20.575,44.75H77.086C77.086,144.38,74.98,112.545,97.662,99.63z"/>
<path style="fill:#65CDEF;" d="M366.645,430.059H70.519c-5.548,0-10.045-4.497-10.045-10.045V149.402
	c0-5.548,4.497-10.045,10.045-10.045h296.126c5.548,0,10.045,4.497,10.045,10.045v270.611
	C376.691,425.561,372.193,430.059,366.645,430.059z"/>
<path style="opacity:0.1;enable-background:new    ;" d="M366.645,139.357h-18.799v251.812c0,5.548-4.497,10.045-10.045,10.045
	H60.474v18.799c0,5.548,4.497,10.045,10.045,10.045h296.126c5.548,0,10.045-4.497,10.045-10.045V149.402
	C376.691,143.854,372.193,139.357,366.645,139.357z"/>
<path style="fill:#FFFFFF;" d="M288.538,358.254H148.627c-5.548,0-10.045-4.497-10.045-10.045V221.208
	c0-5.548,4.497-10.045,10.045-10.045h139.911c5.548,0,10.045,4.497,10.045,10.045v127.001
	C298.583,353.757,294.086,358.254,288.538,358.254z"/>
<path style="fill:#FFC433;" d="M250.921,298.514h-63.377c-7.176,0-13.048-5.871-13.048-13.048l0,0
	c0-7.176,5.871-13.048,13.048-13.048h63.377c7.176,0,13.048,5.871,13.048,13.048l0,0
	C263.968,292.642,258.097,298.514,250.921,298.514z"/>
<g>
	<circle style="fill:#3A9CB4;" cx="100.142" cy="180.925" r="12.491"/>
	<circle style="fill:#3A9CB4;" cx="339.27" cy="180.925" r="12.491"/>
	<circle style="fill:#3A9CB4;" cx="100.142" cy="390.008" r="12.491"/>
	<circle style="fill:#3A9CB4;" cx="339.27" cy="390.008" r="12.491"/>
</g>
<path d="M435.442,215.451c-10.389,0-19.226,6.745-22.378,16.084h-28.839V190.79h28.839c3.152,9.339,11.989,16.085,22.378,16.085
	c13.023,0,23.617-10.595,23.617-23.618s-10.595-23.617-23.617-23.617c-10.389,0-19.226,6.745-22.378,16.083h-28.839v-26.32
	c0-8.641-6.272-15.828-14.499-17.292c-1.181-12.281-7.063-29.292-23.694-38.781c0.262-1.446,0.502-3.086,0.679-4.861
	c0.045-0.304,0.073-0.608,0.08-0.909c0.599-7.136,0.057-16.285-4.496-24.441c-4.061-7.274-10.459-12.487-19.062-15.548
	c-0.88-6.286-3.526-16.346-11.412-24.313c-7.324-7.397-17.321-11.325-29.749-11.695c-10.022-8.402-30.62-18.173-50.775-5.439
	c-2.185,1.381-3.51,3.785-3.51,6.369v119.329h-16.171V12.495c0-2.585-1.325-4.988-3.51-6.369
	c-20.156-12.737-40.755-2.964-50.775,5.439c-12.426,0.371-22.425,4.297-29.749,11.695c-7.887,7.966-10.531,18.026-11.412,24.313
	c-8.602,3.061-15.001,8.273-19.062,15.548c-4.555,8.157-5.095,17.307-4.496,24.443c0.008,0.299,0.036,0.601,0.08,0.903
	c0.177,1.777,0.417,3.419,0.679,4.865c-16.52,9.426-22.432,26.272-23.669,38.535c-9.313,0.431-16.764,8.121-16.764,17.538v173.581
	c0,4.161,3.373,7.534,7.534,7.534s7.534-3.373,7.534-7.534v-11.483h44.622c4.161,0,7.534-3.373,7.534-7.534
	c0-4.161-3.373-7.534-7.534-7.534H68.008v-22.389h44.622c4.161,0,7.534-3.373,7.534-7.534c0-4.161-3.373-7.534-7.534-7.534H68.008
	V236.59h44.622c4.161,0,7.534-3.373,7.534-7.534c0-4.161-3.373-7.534-7.534-7.534H68.008v-72.12c0-1.384,1.127-2.511,2.511-2.511
	h89.432c4.161,0,7.534-3.373,7.534-7.534s-3.373-7.534-7.534-7.534h-75.04c1.026-7.729,4.739-19.893,17.554-26.258
	c6.046,6.406,14.831,11.616,26.698,11.616c2.935,0,6.061-0.318,9.377-1.017c4.071-0.858,6.677-4.853,5.82-8.924
	c-0.858-4.072-4.853-6.678-8.924-5.82c-19.301,4.065-26.419-11.701-27.878-15.644c-0.356-4.756,0.021-10.542,2.737-15.366
	c2.755-4.895,7.558-8.078,14.681-9.732c3.454-0.802,5.88-3.947,5.829-7.491c-0.002-0.117-0.078-11.776,7.572-19.415
	c3.003-2.999,6.916-5.058,11.677-6.176c-1.423,6.08-1.357,13.335,1.488,21.629c1.072,3.126,3.996,5.092,7.126,5.092
	c0.811,0,1.634-0.132,2.445-0.41c3.936-1.35,6.032-5.634,4.682-9.57c-5.437-15.852,4.722-23.184,5.959-24.004
	c0.661-0.422,1.233-0.931,1.712-1.503c5.83-3.13,14.236-5.685,23.082-1.832v114.827h-10.135c-4.161,0-7.534,3.373-7.534,7.534
	c0,4.161,3.373,7.534,7.534,7.534h48.907h127.02h4.304c1.384,0,2.511,1.127,2.511,2.511v128.529h-63.039V249.86h45.639
	c4.161,0,7.534-3.373,7.534-7.534v-17.714c0-4.161-3.373-7.534-7.534-7.534c-4.161,0-7.534,3.373-7.534,7.534v10.177h-38.105
	v-13.582c0-9.693-7.887-17.579-17.579-17.579H148.628c-9.693,0-17.579,7.887-17.579,17.579v127c0,9.693,7.887,17.579,17.579,17.579
	h139.911c9.693,0,17.579-7.887,17.579-17.579v-30.756h63.039v102.561c0,1.384-1.127,2.511-2.511,2.511H70.519
	c-1.384,0-2.511-1.127-2.511-2.511v-68.18c0-4.161-3.373-7.534-7.534-7.534c-4.161,0-7.534,3.373-7.534,7.534v68.18
	c0,9.693,7.887,17.579,17.579,17.579h21.848v28.41c-9.339,3.152-16.084,11.99-16.084,22.379c0,13.023,10.595,23.617,23.617,23.617
	s23.618-10.595,23.618-23.617c0-10.389-6.745-19.226-16.085-22.379v-28.41h41.685v28.276c-9.339,3.152-16.083,11.989-16.083,22.378
	c0,13.023,10.595,23.617,23.617,23.617s23.617-10.595,23.617-23.617c0-10.389-6.745-19.226-16.083-22.378v-28.276h40.745v28.276
	c-9.339,3.152-16.084,11.989-16.084,22.378c0,13.023,10.595,23.617,23.617,23.617c13.023,0,23.617-10.595,23.617-23.617
	c0-10.389-6.745-19.226-16.084-22.378v-28.276h146.644c9.693,0,17.579-7.887,17.579-17.579V246.603h28.839
	c3.152,9.339,11.989,16.085,22.378,16.085c13.023,0,23.617-10.595,23.617-23.618C459.059,226.045,448.465,215.451,435.442,215.451z
	 M435.442,174.706c4.714,0,8.55,3.835,8.55,8.55c0,4.714-3.835,8.551-8.55,8.551c-4.714,0-8.55-3.835-8.55-8.551
	C426.893,178.542,430.728,174.706,435.442,174.706z M99.902,496.932c-4.714,0-8.55-3.835-8.55-8.55s3.835-8.551,8.55-8.551
	c4.714,0,8.551,3.835,8.551,8.551C108.452,493.096,104.616,496.932,99.902,496.932z M156.655,496.797c-4.714,0-8.55-3.835-8.55-8.55
	c0-4.709,3.828-8.542,8.535-8.549c0.005,0,0.01,0.001,0.014,0.001s0.01-0.001,0.014-0.001c4.707,0.008,8.535,3.84,8.535,8.549
	C165.204,492.961,161.369,496.797,156.655,496.797z M212.467,496.797c-4.714,0-8.55-3.835-8.55-8.55
	c0-4.709,3.828-8.542,8.535-8.549c0.005,0,0.01,0.001,0.014,0.001c0.004,0,0.01-0.001,0.014-0.001
	c4.707,0.008,8.535,3.84,8.535,8.549C221.017,492.961,217.181,496.797,212.467,496.797z M242.855,131.823V16.998
	c8.851-3.852,17.258-1.297,23.084,1.831c0.495,0.59,1.087,1.115,1.775,1.545c0.474,0.296,11.555,7.453,5.894,23.962
	c-1.35,3.936,0.746,8.221,4.682,9.57c0.81,0.278,1.633,0.41,2.445,0.41c3.13,0,6.054-1.966,7.126-5.092
	c2.845-8.295,2.911-15.553,1.486-21.635c4.762,1.118,8.674,3.182,11.679,6.182c7.65,7.638,7.574,19.298,7.573,19.372
	c-0.092,3.576,2.344,6.724,5.828,7.533c7.123,1.653,11.926,4.837,14.681,9.732c2.716,4.826,3.092,10.611,2.737,15.366
	c-1.458,3.941-8.572,19.706-27.878,15.644c-4.075-0.855-8.067,1.75-8.924,5.82c-0.857,4.071,1.749,8.067,5.82,8.924
	c3.318,0.699,6.441,1.018,9.377,1.018c11.87,0,20.656-5.215,26.703-11.623c12.819,6.366,16.529,18.545,17.553,26.264H242.855
	V131.823z M291.049,348.209c0,1.384-1.127,2.511-2.511,2.511H148.627c-1.384,0-2.511-1.127-2.511-2.511V221.208
	c0-1.384,1.127-2.511,2.511-2.511h139.911c1.384,0,2.511,1.127,2.511,2.511V348.209z M306.117,302.385V293h63.039v9.385H306.117z
	 M435.442,247.619c-4.714,0-8.55-3.835-8.55-8.551c0-4.714,3.835-8.55,8.55-8.55c4.714,0,8.55,3.835,8.55,8.55
	C443.992,243.783,440.157,247.619,435.442,247.619z"/>
<path d="M250.921,267.449h-63.377c-11.349,0-20.582,9.233-20.582,20.582c0,11.349,9.233,20.582,20.582,20.582h63.377
	c11.348,0,20.582-9.233,20.582-20.582C271.502,276.683,262.27,267.449,250.921,267.449z M250.921,293.545h-63.377
	c-3.041,0-5.514-2.473-5.514-5.514c0-3.04,2.473-5.514,5.514-5.514h63.377c3.04,0,5.514,2.473,5.514,5.514
	C256.434,291.072,253.961,293.545,250.921,293.545z"/>
<path d="M80.114,180.926c0,11.043,8.983,20.026,20.026,20.026c11.042,0,20.025-8.983,20.025-20.026
	c0-11.042-8.983-20.025-20.025-20.025C89.097,160.9,80.114,169.884,80.114,180.926z M105.097,180.926
	c0,2.734-2.224,4.958-4.957,4.958c-2.734,0-4.958-2.224-4.958-4.958c0-2.733,2.224-4.957,4.958-4.957
	C102.873,175.968,105.097,178.192,105.097,180.926z"/>
<path d="M359.29,180.926c0-11.042-8.983-20.025-20.025-20.025c-11.043,0-20.026,8.983-20.026,20.025
	c0,11.043,8.983,20.026,20.026,20.026C350.307,200.952,359.29,191.968,359.29,180.926z M334.306,180.926
	c0-2.733,2.224-4.957,4.958-4.957c2.733,0,4.957,2.224,4.957,4.957c0,2.734-2.224,4.958-4.957,4.958
	C336.531,185.884,334.306,183.66,334.306,180.926z"/>
<path d="M120.165,390.005c0-11.042-8.983-20.025-20.025-20.025c-11.043,0-20.026,8.983-20.026,20.025
	c0,11.043,8.983,20.026,20.026,20.026C111.182,410.03,120.165,401.047,120.165,390.005z M95.182,390.005
	c0-2.733,2.224-4.957,4.958-4.957c2.733,0,4.957,2.224,4.957,4.957c0,2.734-2.224,4.958-4.957,4.958
	C97.406,394.962,95.182,392.738,95.182,390.005z"/>
<path d="M359.29,390.005c0-11.042-8.983-20.025-20.025-20.025c-11.043,0-20.026,8.983-20.026,20.025
	c0,11.043,8.983,20.026,20.026,20.026C350.307,410.03,359.29,401.047,359.29,390.005z M334.306,390.005
	c0-2.733,2.224-4.957,4.958-4.957c2.733,0,4.957,2.224,4.957,4.957c0,2.734-2.224,4.958-4.957,4.958
	C336.531,394.962,334.306,392.738,334.306,390.005z"/>
<g>
</g>
<g>
</g>
<g>
</g>
<g>
</g>
<g>
</g>
<g>
</g>
<g>
</g>
<g>
</g>
<g>
</g>
<g>
</g>
<g>
</g>
<g>
</g>
<g>
</g>
<g>
</g>
<g>
</g>
</svg>
