<?xml version="1.0" encoding="iso-8859-1"?>
<!-- Generator: Adobe Illustrator 19.0.0, SVG Export Plug-In . SVG Version: 6.00 Build 0)  -->
<svg version="1.1" id="Capa_1" xmlns="http://www.w3.org/2000/svg" xmlns:xlink="http://www.w3.org/1999/xlink" x="0px" y="0px"
	 viewBox="0 0 496 496" style="enable-background:new 0 0 496 496;" xml:space="preserve">
<path style="fill:#FFCB57;" d="M360,240c0-11.848-6.44-22.192-16.008-27.728l-2.48,0.104c1.6-3.808,2.488-7.984,2.488-12.376
	c0-17.672-14.328-32-32-32h-1.128c-3.568-13.776-15.976-24-30.872-24c-17.672,0-32,14.328-32,32c0-17.672-14.328-32-32-32
	c-14.896,0-27.304,10.224-30.872,24H184c-17.672,0-32,14.328-32,32c0,4.328,0.88,8.448,2.44,12.216l-2.432,0.064
	C142.44,217.808,136,228.152,136,240c0,12.936,7.712,24.016,18.752,29.056C153.056,272.352,152,276.032,152,280
	c0,10.448,6.68,19.336,16,22.632l1.216,0.016c-0.728,3.016-1.216,6.12-1.216,9.352c0,22.088,17.912,40,40,40s40-17.912,40-40
	c0,22.088,17.912,40,40,40s40-17.912,40-40c0-3.232-0.488-6.336-1.216-9.352l1.216-0.016c9.32-3.296,16-12.184,16-22.632
	c0-3.968-1.056-7.648-2.752-10.944C352.288,264.016,360,252.936,360,240z M280,208c0.04,0,0.08-0.016,0.12-0.016v1.024L280,208z"/>
<g>
	<path style="fill:#E56565;" d="M152,0c-13.232,0-24,10.768-24,24c0,10.416,6.712,19.216,16,22.528V88h16V46.528
		c9.288-3.312,16-12.112,16-22.528C176,10.768,165.232,0,152,0z M152,32c-4.416,0-8-3.584-8-8s3.584-8,8-8s8,3.584,8,8
		S156.416,32,152,32z"/>
	<path style="fill:#E56565;" d="M216,0c-13.232,0-24,10.768-24,24c0,10.416,6.712,19.216,16,22.528V88h16V46.528
		c9.288-3.312,16-12.112,16-22.528C240,10.768,229.232,0,216,0z M216,32c-4.416,0-8-3.584-8-8s3.584-8,8-8s8,3.584,8,8
		S220.416,32,216,32z"/>
	<path style="fill:#E56565;" d="M280,0c-13.232,0-24,10.768-24,24c0,10.416,6.712,19.216,16,22.528V88h16V46.528
		c9.288-3.312,16-12.112,16-22.528C304,10.768,293.232,0,280,0z M280,32c-4.416,0-8-3.584-8-8s3.584-8,8-8s8,3.584,8,8
		S284.416,32,280,32z"/>
	<path style="fill:#E56565;" d="M344,0c-13.232,0-24,10.768-24,24c0,10.416,6.712,19.216,16,22.528V88h16V46.528
		c9.288-3.312,16-12.112,16-22.528C368,10.768,357.232,0,344,0z M344,32c-4.416,0-8-3.584-8-8s3.584-8,8-8s8,3.584,8,8
		S348.416,32,344,32z"/>
	<path style="fill:#E56565;" d="M24,320c-13.232,0-24,10.768-24,24s10.768,24,24,24c10.416,0,19.216-6.712,22.528-16H80v-16H46.528
		C43.216,326.712,34.416,320,24,320z M24,352c-4.416,0-8-3.584-8-8s3.584-8,8-8s8,3.584,8,8S28.416,352,24,352z"/>
	<path style="fill:#E56565;" d="M24,256c-13.232,0-24,10.768-24,24s10.768,24,24,24c10.416,0,19.216-6.712,22.528-16H80v-16H46.528
		C43.216,262.712,34.416,256,24,256z M24,288c-4.416,0-8-3.584-8-8s3.584-8,8-8s8,3.584,8,8S28.416,288,24,288z"/>
	<path style="fill:#E56565;" d="M24,192c-13.232,0-24,10.768-24,24s10.768,24,24,24c10.416,0,19.216-6.712,22.528-16H80v-16H46.528
		C43.216,198.712,34.416,192,24,192z M24,224c-4.416,0-8-3.584-8-8s3.584-8,8-8s8,3.584,8,8S28.416,224,24,224z"/>
	<path style="fill:#E56565;" d="M24,128c-13.232,0-24,10.768-24,24s10.768,24,24,24c10.416,0,19.216-6.712,22.528-16H80v-16H46.528
		C43.216,134.712,34.416,128,24,128z M24,160c-4.416,0-8-3.584-8-8s3.584-8,8-8s8,3.584,8,8S28.416,160,24,160z"/>
	<path style="fill:#E56565;" d="M352,449.472V408h-16v41.472c-9.288,3.312-16,12.112-16,22.528c0,13.232,10.768,24,24,24
		s24-10.768,24-24C368,461.584,361.288,452.784,352,449.472z M344,480c-4.416,0-8-3.584-8-8s3.584-8,8-8s8,3.584,8,8
		S348.416,480,344,480z"/>
	<path style="fill:#E56565;" d="M288,449.472V408h-16v41.472c-9.288,3.312-16,12.112-16,22.528c0,13.232,10.768,24,24,24
		s24-10.768,24-24C304,461.584,297.288,452.784,288,449.472z M280,480c-4.416,0-8-3.584-8-8s3.584-8,8-8s8,3.584,8,8
		S284.416,480,280,480z"/>
	<path style="fill:#E56565;" d="M224,449.472V408h-16v41.472c-9.288,3.312-16,12.112-16,22.528c0,13.232,10.768,24,24,24
		s24-10.768,24-24C240,461.584,233.288,452.784,224,449.472z M216,480c-4.416,0-8-3.584-8-8s3.584-8,8-8s8,3.584,8,8
		S220.416,480,216,480z"/>
	<path style="fill:#E56565;" d="M160,449.472V408h-16v41.472c-9.288,3.312-16,12.112-16,22.528c0,13.232,10.768,24,24,24
		s24-10.768,24-24C176,461.584,169.288,452.784,160,449.472z M152,480c-4.416,0-8-3.584-8-8s3.584-8,8-8s8,3.584,8,8
		S156.416,480,152,480z"/>
	<path style="fill:#E56565;" d="M472,176c13.232,0,24-10.768,24-24s-10.768-24-24-24c-10.416,0-19.216,6.712-22.528,16H416v16
		h33.472C452.784,169.288,461.584,176,472,176z M472,144c4.416,0,8,3.584,8,8s-3.584,8-8,8s-8-3.584-8-8S467.584,144,472,144z"/>
	<path style="fill:#E56565;" d="M472,192c-10.416,0-19.216,6.712-22.528,16H416v16h33.472c3.312,9.288,12.112,16,22.528,16
		c13.232,0,24-10.768,24-24S485.232,192,472,192z M472,224c-4.416,0-8-3.584-8-8s3.584-8,8-8s8,3.584,8,8S476.416,224,472,224z"/>
	<path style="fill:#E56565;" d="M472,256c-10.416,0-19.216,6.712-22.528,16H416v16h33.472c3.312,9.288,12.112,16,22.528,16
		c13.232,0,24-10.768,24-24S485.232,256,472,256z M472,288c-4.416,0-8-3.584-8-8s3.584-8,8-8s8,3.584,8,8S476.416,288,472,288z"/>
	<path style="fill:#E56565;" d="M472,320c-10.416,0-19.216,6.712-22.528,16H416v16h33.472c3.312,9.288,12.112,16,22.528,16
		c13.232,0,24-10.768,24-24S485.232,320,472,320z M472,352c-4.416,0-8-3.584-8-8s3.584-8,8-8s8,3.584,8,8S476.416,352,472,352z"/>
</g>
<g>
	<path style="fill:#3F3A34;" d="M144,200c0,2.576,0.296,5.08,0.76,7.52C134.36,214.984,128,227.072,128,240
		c0,13.048,6.456,25.168,16.912,32.576c-0.608,2.44-0.912,4.928-0.912,7.424c0,11.616,6.344,22.168,16.216,27.784
		C160.088,309.176,160,310.576,160,312c0,26.472,21.528,48,48,48c16.688,0,31.392-8.568,40-21.52c8.608,12.96,23.312,21.52,40,21.52
		c26.472,0,48-21.528,48-48c0-1.424-0.088-2.824-0.216-4.216C345.656,302.168,352,291.616,352,280c0-2.496-0.304-4.984-0.912-7.424
		C361.544,265.168,368,253.048,368,240c0-12.928-6.36-25.016-16.76-32.48c0.464-2.44,0.76-4.944,0.76-7.52
		c0-20.392-15.392-37.072-35.136-39.504C310.792,146.12,296.56,136,280,136c-13.128,0-24.704,6.448-32,16.248
		c-7.296-9.8-18.872-16.248-32-16.248c-16.56,0-30.792,10.12-36.864,24.496C159.392,162.928,144,179.608,144,200z M280,152
		c13.232,0,24,10.768,24,24s-10.768,24-24,24v16c21.568,0,39.08-17.192,39.856-38.568C329.224,180.704,336,189.528,336,200
		c0,13.232-10.768,24-24,24v16c13.544,0,25.496-6.808,32.736-17.144C349.296,227.328,352,233.48,352,240
		c0,9.328-5.52,17.872-14.08,21.776l-7.64,3.496l3.848,7.464c1.248,2.392,1.872,4.832,1.872,7.264c0,4.328-1.888,8.24-4.816,11.184
		C323.416,275.128,307,264,288,264v16c17.648,0,32,14.352,32,32s-14.352,32-32,32s-32-14.352-32-32V176
		C256,162.768,266.768,152,280,152z M176.144,177.432C176.92,198.808,194.432,216,216,216v-16c-13.232,0-24-10.768-24-24
		s10.768-24,24-24s24,10.768,24,24v136c0,17.648-14.352,32-32,32s-32-14.352-32-32s14.352-32,32-32v-16
		c-19,0-35.416,11.128-43.184,27.184C161.888,288.24,160,284.328,160,280c0-2.432,0.624-4.872,1.864-7.272l3.848-7.464l-7.64-3.496
		C149.52,257.872,144,249.328,144,240c0-6.52,2.704-12.672,7.264-17.144C158.504,233.192,170.456,240,184,240v-16
		c-13.232,0-24-10.768-24-24C160,189.528,166.776,180.704,176.144,177.432z"/>
	<path style="fill:#3F3A34;" d="M140.688,104L96,148.688V392h304V104H140.688z M384,376H112V155.312L147.312,120H384V376z"/>
</g>
<g>
</g>
<g>
</g>
<g>
</g>
<g>
</g>
<g>
</g>
<g>
</g>
<g>
</g>
<g>
</g>
<g>
</g>
<g>
</g>
<g>
</g>
<g>
</g>
<g>
</g>
<g>
</g>
<g>
</g>
</svg>
