<?xml version="1.0" encoding="iso-8859-1"?>
<!-- Generator: Adobe Illustrator 19.0.0, SVG Export Plug-In . SVG Version: 6.00 Build 0)  -->
<svg version="1.1" id="Capa_1" xmlns="http://www.w3.org/2000/svg" xmlns:xlink="http://www.w3.org/1999/xlink" x="0px" y="0px"
	 viewBox="0 0 512.001 512.001" style="enable-background:new 0 0 512.001 512.001;" xml:space="preserve">
<path style="fill:#5BB599;" d="M476.088,96.867c0-15.577,12.361-28.259,27.807-28.792V51.762c0-19.691-15.962-35.653-35.653-35.653
	H113.866c0,15.915-12.902,28.817-28.817,28.817S56.232,32.024,56.232,16.109H43.556c-19.691,0-35.452,15.963-35.452,35.653v337.175
	c15.916,0,28.616,12.902,28.616,28.817S24.02,446.57,8.104,446.57v13.667c0,19.691,15.761,35.654,35.452,35.654h346.699
	c0-15.915,12.902-28.818,28.817-28.818c15.915,0,28.817,12.902,28.817,28.817h20.352c19.691,0,35.653-15.962,35.653-35.653v-334.58
	C488.448,125.126,476.088,112.444,476.088,96.867z"/>
<path style="fill:#4C9385;" d="M330.332,347.465H195.913c-10.22,0-18.506-8.285-18.506-18.506V194.54
	c0-10.22,8.285-18.506,18.506-18.506h134.419c10.22,0,18.506,8.285,18.506,18.506v134.419
	C348.837,339.18,340.552,347.465,330.332,347.465z"/>
<path style="fill:#5B5E6E;" d="M315.224,328.198H211.02c-7.923,0-14.346-6.423-14.346-14.346V209.648
	c0-7.923,6.423-14.346,14.346-14.346h104.204c7.923,0,14.346,6.423,14.346,14.346v104.204
	C329.57,321.775,323.147,328.198,315.224,328.198z"/>
<path style="fill:#4F5166;" d="M315.224,195.302h-28.803c7.923,0,14.346,6.423,14.346,14.346v104.204
	c0,7.923-6.423,14.346-14.346,14.346h28.803c7.923,0,14.346-6.423,14.346-14.346V209.648
	C329.57,201.725,323.147,195.302,315.224,195.302z"/>
<path style="fill:#6DE27B;" d="M262.977,290.408L262.977,290.408c-15.828,0-28.658-12.831-28.658-28.658l0,0
	c0-15.828,12.831-28.658,28.658-28.658l0,0c15.828,0,28.658,12.831,28.658,28.658l0,0
	C291.636,277.577,278.805,290.408,262.977,290.408z"/>
<g>
	<path style="fill:#EDEDED;" d="M85.074,123.523c-13.407,0-24.315-10.907-24.315-24.315s10.908-24.315,24.315-24.315
		s24.315,10.907,24.315,24.315S98.48,123.523,85.074,123.523z M85.074,91.104c-4.469,0-8.105,3.636-8.105,8.105
		s3.636,8.105,8.105,8.105c4.469,0,8.105-3.636,8.105-8.105S89.543,91.104,85.074,91.104z"/>
	<path style="fill:#EDEDED;" d="M85.074,195.044c-13.407,0-24.315-10.907-24.315-24.315c0-13.407,10.908-24.315,24.315-24.315
		s24.315,10.907,24.315,24.315C109.388,184.137,98.48,195.044,85.074,195.044z M85.074,162.624c-4.469,0-8.105,3.636-8.105,8.105
		s3.636,8.105,8.105,8.105c4.469,0,8.105-3.636,8.105-8.105S89.543,162.624,85.074,162.624z"/>
	<path style="fill:#EDEDED;" d="M282.105,162.624c-13.407,0-24.315-10.907-24.315-24.315c0-13.407,10.908-24.315,24.315-24.315
		s24.315,10.907,24.315,24.315C306.419,151.717,295.512,162.624,282.105,162.624z M282.105,130.205
		c-4.469,0-8.105,3.636-8.105,8.105s3.636,8.105,8.105,8.105s8.105-3.636,8.105-8.105
		C290.21,133.841,286.574,130.205,282.105,130.205z"/>
	<path style="fill:#EDEDED;" d="M414.739,200.643c-13.407,0-24.315-10.907-24.315-24.315c0-13.407,10.908-24.315,24.315-24.315
		s24.315,10.907,24.315,24.315C439.053,189.736,428.145,200.643,414.739,200.643z M414.739,168.223
		c-4.469,0-8.105,3.636-8.105,8.105s3.636,8.105,8.105,8.105c4.469,0,8.105-3.636,8.105-8.105S419.208,168.223,414.739,168.223z"/>
	<path style="fill:#EDEDED;" d="M85.074,441.129c-13.407,0-24.315-10.908-24.315-24.315s10.908-24.315,24.315-24.315
		s24.315,10.908,24.315,24.315C109.388,430.221,98.48,441.129,85.074,441.129z M85.074,408.71c-4.469,0-8.105,3.636-8.105,8.105
		c0,4.469,3.636,8.105,8.105,8.105c4.469,0,8.105-3.636,8.105-8.105C93.178,412.345,89.543,408.71,85.074,408.71z"/>
	<path style="fill:#EDEDED;" d="M145.096,388.822c-13.407,0-24.315-10.908-24.315-24.315s10.908-24.315,24.315-24.315
		s24.315,10.908,24.315,24.315C169.41,377.914,158.503,388.822,145.096,388.822z M145.096,356.403c-4.469,0-8.105,3.636-8.105,8.105
		c0,4.469,3.636,8.105,8.105,8.105s8.105-3.636,8.105-8.105C153.201,360.038,149.565,356.403,145.096,356.403z"/>
	<path style="fill:#EDEDED;" d="M414.739,441.129c-13.407,0-24.315-10.908-24.315-24.315s10.908-24.315,24.315-24.315
		s24.315,10.908,24.315,24.315C439.053,430.221,428.145,441.129,414.739,441.129z M414.739,408.71c-4.469,0-8.105,3.636-8.105,8.105
		c0,4.469,3.636,8.105,8.105,8.105c4.469,0,8.105-3.636,8.105-8.105C422.843,412.345,419.208,408.71,414.739,408.71z"/>
	<path style="fill:#EDEDED;" d="M364.631,356.403c-13.407,0-24.315-10.908-24.315-24.315s10.908-24.315,24.315-24.315
		s24.315,10.908,24.315,24.315C388.945,345.495,378.038,356.403,364.631,356.403z M364.631,323.983
		c-4.469,0-8.105,3.636-8.105,8.105c0,4.469,3.636,8.105,8.105,8.105s8.105-3.636,8.105-8.105
		C372.736,327.619,369.1,323.983,364.631,323.983z"/>
	<path style="fill:#EDEDED;" d="M125.868,320.659c-13.407,0-24.315-10.908-24.315-24.315s10.908-24.315,24.315-24.315
		s24.315,10.908,24.315,24.315S139.275,320.659,125.868,320.659z M125.868,288.24c-4.469,0-8.105,3.636-8.105,8.105
		c0,4.469,3.636,8.105,8.105,8.105s8.105-3.636,8.105-8.105C133.973,291.875,130.337,288.24,125.868,288.24z"/>
	<path style="fill:#EDEDED;" d="M414.739,123.523c-13.407,0-24.315-10.907-24.315-24.315s10.908-24.315,24.315-24.315
		s24.315,10.907,24.315,24.315S428.145,123.523,414.739,123.523z M414.739,91.104c-4.469,0-8.105,3.636-8.105,8.105
		s3.636,8.105,8.105,8.105c4.469,0,8.105-3.636,8.105-8.105S419.208,91.104,414.739,91.104z"/>
</g>
<path d="M504.175,76.176c4.365-0.151,7.825-3.733,7.825-8.1V51.762c0-24.128-19.63-43.758-43.758-43.758H113.866
	c-4.477,0-8.105,3.629-8.105,8.105c0,11.421-9.292,20.712-20.713,20.712s-20.712-9.292-20.712-20.712
	c0-4.476-3.628-8.105-8.105-8.105H43.556C19.539,8.004,0,27.634,0,51.762v337.175c0,4.477,3.628,8.105,8.105,8.105
	c11.309,0,20.51,9.292,20.51,20.713s-9.201,20.712-20.51,20.712c-4.477,0-8.105,3.628-8.105,8.105v13.667
	c0,24.129,19.539,43.759,43.556,43.759h346.699c4.477,0,8.105-3.628,8.105-8.105c0-11.421,9.292-20.713,20.713-20.713
	c11.421,0,20.713,9.292,20.713,20.713c0,4.477,3.628,8.105,8.105,8.105h20.352c24.128,0,43.758-19.63,43.758-43.759v-334.58
	c0-4.367-3.46-7.95-7.825-8.1c-11.205-0.387-19.982-9.475-19.982-20.692S492.969,76.563,504.175,76.176z M305.025,130.205
	c-1.833-5.169-5.367-9.535-9.926-12.431l9.83-13.882c0.97-1.37,1.49-3.006,1.49-4.684V24.214h22.037v105.991H305.025z
	 M311.918,207.624c2.939,0,5.33,2.391,5.33,5.33v97.592c0,2.939-2.391,5.33-5.33,5.33h-97.591c-2.94,0-5.331-2.391-5.331-5.33
	v-97.592c0-2.939,2.391-5.33,5.331-5.33H311.918z M290.998,348.689l39.489,82.85v56.249h-77.553v-57.232l17.73-83.673
	c0.117-0.552,0.176-1.115,0.176-1.68v-13.117h19.369v13.117C290.21,346.409,290.479,347.6,290.998,348.689z M235.261,345.203
	v-13.117h19.369v12.267l-17.73,83.673c-0.117,0.552-0.176,1.115-0.176,1.68v58.082h-64.478v-55.393l61.408-82.348
	C234.698,348.648,235.261,346.948,235.261,345.203z M148.788,288.24c-3.346-9.433-12.355-16.21-22.92-16.21
	s-19.575,6.776-22.92,16.21H16.21v-19.369h162.089h14.487v19.369H148.788z M133.973,296.345c0,4.469-3.636,8.105-8.105,8.105
	s-8.105-3.636-8.105-8.105c0-4.469,3.636-8.105,8.105-8.105S133.973,291.875,133.973,296.345z M16.21,338.531h61.944l25.252,17.872
	H16.21V338.531z M62.153,107.314c3.346,9.434,12.355,16.21,22.92,16.21s19.575-6.776,22.92-16.21h42.459
	c4.477,0,8.105-3.629,8.105-8.105V24.214h22.247v72.954l-35.196,65.457h-37.615c-3.346-9.434-12.355-16.21-22.92-16.21
	c-11.479,0-21.119,7.999-23.656,18.713H16.21v-57.815h45.943V107.314z M76.969,99.209c0-4.469,3.636-8.105,8.105-8.105
	s8.105,3.636,8.105,8.105s-3.636,8.105-8.105,8.105C80.604,107.314,76.969,103.678,76.969,99.209z M93.178,170.729
	c0,4.469-3.636,8.105-8.105,8.105s-8.105-3.636-8.105-8.105s3.636-8.105,8.105-8.105C89.543,162.624,93.178,166.26,93.178,170.729z
	 M178.298,233.291h14.487v19.369h-14.487H16.21v-19.369H178.298z M192.786,212.954v4.127h-14.487H16.21v-35.744H63.2
	c3.947,8.106,12.268,13.706,21.874,13.706c10.566,0,19.575-6.776,22.92-16.21h42.459c2.983,0,5.725-1.639,7.138-4.267l38.457-71.521
	c0.634-1.18,0.967-2.498,0.967-3.838V24.214h22.037v152.114v15.086h-4.725C202.449,191.414,192.786,201.077,192.786,212.954z
	 M254.631,176.328v15.086h-19.369v-15.086V24.214h19.369v74.995c0,1.917,0.68,3.772,1.918,5.235l11.74,13.874
	c-6.337,4.393-10.498,11.714-10.498,19.991c0,8.175,4.06,15.415,10.264,19.825l-11.378,12.811
	C255.358,172.429,254.631,174.344,254.631,176.328z M281.535,108.88L270.84,96.24V24.214h19.369V96.63L281.535,108.88z
	 M282.105,146.415c-4.469,0-8.105-3.636-8.105-8.105s3.636-8.105,8.105-8.105s8.105,3.636,8.105,8.105
	C290.21,142.779,286.574,146.415,282.105,146.415z M43.556,24.214h5.467c3.704,16.474,18.45,28.817,36.025,28.817
	s32.322-12.344,36.027-28.817h21.273v66.89h-34.354c-3.346-9.434-12.355-16.21-22.92-16.21s-19.575,6.776-22.92,16.21H16.21V51.762
	C16.21,36.572,28.478,24.214,43.556,24.214z M16.21,460.239v-6.469c16.361-3.72,28.615-18.455,28.615-36.015
	S32.57,385.459,16.21,381.739v-9.126h105.966c3.346,9.433,12.355,16.21,22.92,16.21c13.407,0,24.315-10.908,24.315-24.315
	s-10.908-24.315-24.315-24.315c-8.631,0-16.221,4.524-20.537,11.322L85.414,323.81c-1.369-0.969-3.006-1.489-4.682-1.489H16.21
	v-17.872h86.738c3.346,9.433,12.355,16.21,22.92,16.21s19.575-6.776,22.92-16.21h43.997v6.097c0,11.878,9.664,21.54,21.541,21.54
	h4.725v10.428l-61.408,82.348c-1.044,1.399-1.607,3.099-1.607,4.845v58.082H93.178v-48.053c9.433-3.346,16.21-12.355,16.21-22.92
	c0-13.407-10.908-24.315-24.315-24.315s-24.315,10.908-24.315,24.315c0,10.566,6.776,19.574,16.21,22.92v48.053H43.556
	C28.478,487.788,16.21,475.429,16.21,460.239z M145.096,356.403c4.469,0,8.105,3.636,8.105,8.105c0,4.469-3.636,8.105-8.105,8.105
	s-8.105-3.636-8.105-8.105C136.991,360.038,140.627,356.403,145.096,356.403z M85.074,424.919c-4.469,0-8.105-3.636-8.105-8.105
	c0-4.469,3.636-8.105,8.105-8.105c4.469,0,8.105,3.636,8.105,8.105C93.178,421.284,89.543,424.919,85.074,424.919z M468.242,487.788
	h-13.143c-3.704-16.474-18.451-28.818-36.027-28.818c-17.575,0-32.322,12.344-36.026,28.818h-36.349v-58.082
	c0-1.206-0.269-2.398-0.788-3.487l-39.489-82.85v-11.283h5.498c11.878,0,21.54-9.663,21.54-21.54v-6.097H495.79v19.534H387.551
	c-3.346-9.433-12.355-16.21-22.921-16.21c-13.407,0-24.315,10.908-24.315,24.315s10.908,24.315,24.315,24.315
	c10.566,0,19.575-6.776,22.921-16.21H495.79v15.129h-81.052c-4.477,0-8.105,3.628-8.105,8.105v30.467
	c-9.433,3.346-16.21,12.355-16.21,22.92c0,13.407,10.908,24.315,24.315,24.315s24.315-10.908,24.315-24.315
	c0-10.566-6.776-19.574-16.21-22.92v-22.362h72.947v88.707C495.79,475.429,483.432,487.788,468.242,487.788z M333.458,268.87H495.79
	v19.369H333.458V268.87z M495.79,252.661H333.458v-19.37H495.79V252.661z M372.736,332.088c0,4.469-3.636,8.105-8.105,8.105
	s-8.105-3.636-8.105-8.105c0-4.469,3.636-8.105,8.105-8.105S372.736,327.619,372.736,332.088z M414.739,408.71
	c4.469,0,8.105,3.636,8.105,8.105c0,4.469-3.636,8.105-8.105,8.105c-4.469,0-8.105-3.636-8.105-8.105
	C406.634,412.345,410.269,408.71,414.739,408.71z M495.79,132.661v84.42H333.458v-4.127c0-11.877-9.663-21.54-21.54-21.54h-5.498
	v-6.981h85.399c3.346,9.434,12.355,16.21,22.92,16.21c13.407,0,24.315-10.907,24.315-24.315c0-13.407-10.908-24.315-24.315-24.315
	c-10.566,0-19.575,6.776-22.92,16.21h-93.503c-4.477,0-8.105,3.629-8.105,8.105v15.086H270.84v-12.006l15.192-17.105
	c8.827-1.44,16.071-7.649,18.993-15.888h31.536c4.477,0,8.105-3.629,8.105-8.105V24.214H362.8v74.995
	c0,4.476,3.628,8.105,8.105,8.105h20.913c3.346,9.434,12.355,16.21,22.92,16.21c13.407,0,24.315-10.907,24.315-24.315
	s-10.908-24.315-24.315-24.315c-10.566,0-19.575,6.776-22.92,16.21H379.01v-66.89h89.233c15.19,0,27.548,12.358,27.548,27.548v9.312
	c-16.096,4.034-27.808,18.495-27.808,35.794S479.695,128.627,495.79,132.661z M406.634,176.328c0-4.469,3.636-8.105,8.105-8.105
	c4.469,0,8.105,3.636,8.105,8.105s-3.636,8.105-8.105,8.105C410.269,184.433,406.634,180.798,406.634,176.328z M406.634,99.209
	c0-4.469,3.636-8.105,8.105-8.105c4.469,0,8.105,3.636,8.105,8.105s-3.636,8.105-8.105,8.105
	C410.269,107.314,406.634,103.678,406.634,99.209z"/>
<path d="M262.977,298.513c20.272,0,36.763-16.491,36.763-36.763c0-20.271-16.491-36.763-36.763-36.763s-36.763,16.492-36.763,36.763
	C226.214,282.022,242.706,298.513,262.977,298.513z M262.977,241.197c11.333,0,20.553,9.22,20.553,20.553
	c0,11.333-9.22,20.553-20.553,20.553s-20.553-9.22-20.553-20.553S251.644,241.197,262.977,241.197z"/>
<g>
</g>
<g>
</g>
<g>
</g>
<g>
</g>
<g>
</g>
<g>
</g>
<g>
</g>
<g>
</g>
<g>
</g>
<g>
</g>
<g>
</g>
<g>
</g>
<g>
</g>
<g>
</g>
<g>
</g>
</svg>
