<svg xmlns="http://www.w3.org/2000/svg" xmlns:xlink="http://www.w3.org/1999/xlink" version="1.1" x="0px" y="0px" viewBox="0 0 100 125" enable-background="new 0 0 100 100" xml:space="preserve"><circle cx="39.7" cy="88" r="3"/><path d="M62.7,68.1c-0.4,0.1-0.9,0.2-1.4,0.2h-0.6V81h-42V15h42v5.2c0.6-0.3,1.3-0.4,2-0.4c0,0,0,0,0.1,0h0.9h1V8c0-1.7-1.3-3-3-3  h-44c-1.6,0-3,1.3-3,3v84c0,1.6,1.4,3,3,3h44c1.7,0,3-1.4,3-3V67c-0.3,0.3-0.6,0.5-1,0.7C63.4,67.9,63,68,62.7,68.1z M39.7,84  c2.2,0,4,1.8,4,4c0,2.2-1.8,4-4,4c-2.2,0-4-1.8-4-4C35.7,85.8,37.5,84,39.7,84z M42.4,11H37c-0.6,0-1-0.4-1-1s0.4-1,1-1h5.3  c0.6,0,1,0.4,1,1S42.9,11,42.4,11z"/><path d="M32.8,51.8c-1.7,0-3,1.3-3,3v18.6c0,1.7,1.3,3,3,3h18.6c1.7,0,3-1.3,3-3v-5H42.8c-2.8,0-5-2.2-5-5V51.8H32.8z"/><path d="M55.3,66.3h1h3.4h0.5h0.5h0.6c0.5,0,1-0.1,1.4-0.4c0.4-0.2,0.7-0.5,1-0.8c0.4-0.5,0.6-1.1,0.6-1.8v-5h-0.6h-1h-2h-0.5h-0.5  h-3.4h-1h-1h-1.6c-2.8,0-5-2.2-5-5v-1.6v-1v-1v-8h-5c-1.7,0-3,1.3-3,3v5v1v1v11.6c0,1.7,1.3,3,3,3h11.6H55.3z"/><path d="M65.3,48.3h-0.6h-0.4h-0.6h-0.9c0,0,0,0-0.1,0c-0.7,0-1.4-0.2-2-0.4c-0.2-0.1-0.3-0.2-0.5-0.3c-0.2-0.1-0.3-0.2-0.5-0.3  c-1.2-0.9-1.9-2.3-1.9-3.9v-1.6v-1v-1v-8h-5c-1.7,0-3,1.3-3,3v5v1v1v8v1v1v1.6c0,1.7,1.3,3,3,3h1.6h1h1h3.4h0.5h0.5h2h1h0.6h0.4h0.6  h1h5c1.7,0,3-1.3,3-3v-5h-8H65.3z"/><path d="M81.3,21.8H64.7h-1h-0.9c0,0,0,0-0.1,0c-0.8,0-1.5,0.3-2,0.8c-0.2,0.2-0.4,0.4-0.5,0.6c-0.3,0.5-0.4,1-0.4,1.5v5v1v1v8v1v1  v1.6c0,0.6,0.2,1.1,0.4,1.5c0.1,0.2,0.3,0.4,0.5,0.6c0.5,0.5,1.2,0.8,2,0.8c0,0,0,0,0.1,0h0.9h0.6h0.4h0.6h1h8h1h1h5  c1.7,0,3-1.3,3-3V24.8C84.3,23.1,83,21.8,81.3,21.8z"/><text x="0" y="115" fill="#000000" font-size="5px" font-weight="bold" font-family="'Helvetica Neue', Helvetica, Arial-Unicode, Arial, Sans-serif">Created by Indygo</text><text x="0" y="120" fill="#000000" font-size="5px" font-weight="bold" font-family="'Helvetica Neue', Helvetica, Arial-Unicode, Arial, Sans-serif">from the Noun Project</text></svg>