<svg xmlns="http://www.w3.org/2000/svg" xmlns:xlink="http://www.w3.org/1999/xlink" version="1.1" x="0px" y="0px" viewBox="0 0 64 80" enable-background="new 0 0 64 64" xml:space="preserve"><g display="none"><rect x="-158.021" y="-86" display="inline" fill="#000000" width="779" height="383"/></g><g><g><rect x="42.685" y="14.227" width="14.294" height="11"/><rect x="42.685" y="28.227" width="14.294" height="11"/><rect x="42.685" y="42.227" width="14.294" height="11"/><rect x="24.332" y="14.227" width="15.294" height="11"/><rect x="24.332" y="28.227" width="15.294" height="11"/><rect x="24.332" y="42.227" width="15.294" height="11"/><rect x="6.979" y="14.227" width="14.294" height="11"/><rect x="6.979" y="28.227" width="14.294" height="11"/><rect x="6.979" y="42.227" width="14.294" height="11"/><circle cx="5.491" cy="6.027" r="0.953"/><circle cx="8.35" cy="6.027" r="0.953"/><circle cx="11.209" cy="6.027" r="0.953"/><path d="M0,62h64V2H0V62z M6.886,61l1.953-2.528H56.06L58.013,61H6.886z M63,61h-3.724l-2.726-3.528H8.348L5.623,61H1V10.044    H14.34L21.384,3H63V61z M19.97,3l-6.044,6.044H1V3H19.97z"/><rect x="23.45" y="6.344" width="35.714" height="1"/></g></g><g display="none"><g display="inline"><g><polygon points="8.84,58.472 6.131,62 58.79,62 56.061,58.472    "/></g><g><path d="M0,9.044h13.926L20.962,2H0V9.044z M10.946,4.559c0.526,0,0.953,0.427,0.953,0.953s-0.427,0.953-0.953,0.953     c-0.526,0-0.953-0.427-0.953-0.953S10.42,4.559,10.946,4.559z M8.087,4.559c0.526,0,0.953,0.427,0.953,0.953     S8.614,6.465,8.087,6.465S7.134,6.038,7.134,5.512S7.561,4.559,8.087,4.559z M5.228,4.559c0.526,0,0.953,0.427,0.953,0.953     S5.755,6.465,5.228,6.465S4.276,6.038,4.276,5.512S4.702,4.559,5.228,4.559z"/></g><g><path d="M14.341,10.044H0V62h4.87l3.477-4.528h48.204L60.054,62H64V2H22.376L14.341,10.044z M21.273,53.227H6.979v-11h14.294     V53.227z M21.273,39.227H6.979v-11h14.294V39.227z M21.273,25.227H6.979v-11h14.294V25.227z M39.626,53.227H24.332v-11h15.294     V53.227z M39.626,39.227H24.332v-11h15.294V39.227z M39.626,25.227H24.332v-11h15.294V25.227z M56.979,53.227H42.685v-11h14.294     V53.227z M56.979,39.227H42.685v-11h14.294V39.227z M56.979,25.227H42.685v-11h14.294V25.227z M23.45,6.344h35.714v1H23.45V6.344     z"/></g></g></g><text x="0" y="79" fill="#000000" font-size="3px" font-weight="bold" font-family="'Helvetica Neue', Helvetica, Arial-Unicode, Arial, Sans-serif">AlfredoCreates.com/icons &amp; Flaticondesign.com</text><text x="0" y="82" fill="#000000" font-size="3px" font-weight="bold" font-family="'Helvetica Neue', Helvetica, Arial-Unicode, Arial, Sans-serif">from the Noun Project</text></svg>